<mxfile host="app.diagrams.net" modified="2021-05-10T07:01:51.529Z" agent="5.0 (Windows NT 10.0; Win64; x64) AppleWebKit/537.36 (KHTML, like Gecko) Chrome/90.0.4430.93 Safari/537.36" etag="9_6apu_glSYp0XRulqdd" version="14.6.11" type="github">
  <diagram id="jepHzMukQFXlQq4yZJT2" name="ページ1">
    <mxGraphModel dx="1038" dy="548" grid="1" gridSize="10" guides="1" tooltips="1" connect="1" arrows="1" fold="1" page="1" pageScale="1" pageWidth="827" pageHeight="1169" math="0" shadow="0">
      <root>
        <mxCell id="0" />
        <mxCell id="1" parent="0" />
        <mxCell id="5iDha0_c4JHnKYvB__se-1" value="" style="shape=image;verticalLabelPosition=bottom;labelBackgroundColor=#ffffff;verticalAlign=top;aspect=fixed;imageAspect=0;image=data:image/png,iVBORw0KGgoAAAANSUhEUgAAAfAAAADnCAYAAADhCARxAAAgAElEQVR4Aey9B3QbR56vO+e+e945772zO3d3Z/fuzNzZmZ3ZSZ6xPQ6y5ZxkyZLlHOQsRwUr2JKclG1LlmRFS1bOpJhzTiCYQBIkCEYwJzATAEFEEkQg+b3TDUGWJVuiRMn2rKt5mt2orq7611dV/euurq76yR133FH5k5/8BLEKBqIMiDIgyoAoA6IM/H2UgdPa/RPEIggIAoKAICAICAJ/HwRaWloCD90XE/BxclJi+Xjj5zR3m+TU2QZ62fX5Z0QmZvpT63MReWw/O/efZAToa9bx6bq1fPjhh2zaupvW0+edi0aZHk9ygUZ2jo8MZvXKlfI5B46HYht2n+td/BYEBAFBQBAQBH70BCYs4Nq8FO67+x7uvutOHnlhPvquLr74eCk33nADd947HWVZLZlRR7nu2uu57trr2HI4hPTgA/zr//h/eeTJp7jn9ilMf/x5WnsGzkD3jdiJOrqTX/78Z7yw7gvZ/YlZd3LNndN4de4r3Dr1FtbvPnHGv9gRBAQBQUAQEAQEAT+BCQt40Lb1PPL8OxTnpXPjDdez84vdPDnterKLytm6fiUr1u9g9fLFrNudRnroDh5//mmO7trKnOnPY/WOMzLYykP3TGV/eMYZ9ubuetYteYlrp9zKgs8Py+6vvvwkHx2MoLqqklXLF7D0E7+wnzlJ7AgCgoAgIAgIAoIAExbwem0+Dz14PzPuu48//uFPrFnzEQ/feQ269h6Ctm9hwYI1vLNoMfsj6qjMieLxF59l9+YNvDDzZYZPg17ywuN8suMwKmUiu7/cj65JDz43b7w2h9c27JN9zZ0zi2tuvZNnnnqcP//xj2w9ECGySRAQBAQBQUAQEATOITBhAXdaB4iPi+Xgjk1MuXEKew8c4qlpfyMlp5DPVq7gw092s2bFIj78PIa4Y5t54oU5HP9iG89Mm4N5xIujt55Z993JoZBItq2fx5+uvZHEnFLZnFdeeopXP90r78996Qk+OhiOrqaGbevfZer0R+kaGj/HbPFTEBAEBAFBQBD4cROYsIC315fzxOyHmHrrFOa89R4G0wBfbniXP/3hv7j17mkUVDahjD3ONX/8M7///R/ZfiKS7PAj/NtP/ie333c/t938Nx599lX0fQO4hp1YrVY8Xh/gZs7Ts3l+rb+pfM5j9/Gf197EI7Nnc9MN1/Pyoo9wjv64M0mkXhAQBAQBQUAQOJfAhAWc8VGykqPZumsvfYNOORynxcjBPTtISM/1hzvmJiH0GPuPR+AF+lvr2LJ6NavWrGbn3sN0m2znxg+MkpwUR0pRuXwsOTaMtatXsXr1avYcPEa/2fEN5wgnQUAQEAQEAUHgx01g4gL+4+YkUi8ICAKCgCAgCPygCAgB/0FlhzBGEBAEBAFBQBCYGAEh4BPjJHwJAoKAICAICAI/KAJCwH9Q2SGMEQQEAUFAEBAEJkZACPjEOAlfgoAgIAgIAoLAD4qAEPAfVHYIYwQBQUAQEAQEgYkRuCQBd4+M4PFIH4idXsbHGRsbC/ya0HacMTwej+zX5/EgDdHi9XrwjUrubkbODh/k46M+n3xs/AqM5+L1euU0jI368HhP2+H1MDp68XSMy9b4kzk2Jj5On1CGC0+CgCAgCAgCV4XAhAXc2N1OfGwchepKXC47dpuDtrYKQhQ52IfcDA27GHYNYehqo0bXREerHrvdhsVmw2a1YrXZGRsfp7G8iNCkVPT6WuIjY1DmFJGTl0VEfAxx0SEkpKQzOOQX1uYmHaq6ZvJzMjkedIzatl5Z0gfMg9gddqwWaTuExTKAbdBIc3kJJqsDu82M0dBGt8nCoNmCc2hItm98fAxddRWJ8bGUFucTmZJKZ0ctp04Eoe81wagbjbqCPpOBEfcILtcIlsEBTHIYw3R26+k39OMcdtHaWs2A1XJVMkUEKggIAoKAICAIXIzAhAW8tlhNX58Jj8tGZmoGWTlFxKsy2HIqlPDgEI6FR6PIzaM8J42omHQy4+LITUtDWaDh+MH9JChzaRsYprW8gqDEeLLiP0dVUEbwnuPUtnWQGLobdXk5lv5mQvJ19PX1oS7LJUlTjlqjRpGdSVlZJQ6HGVVRPqoCNWq1hti0eEKj9pKVn0vClzuJiUvm+KGD5CnDCVOoyM1IITI8jKjENNy+MYas/eRnp9DW0YO2ogKdNpek+Gwam7rwDps5uCcURfxxwoOCCQtLJKcgnb37TpCbr6K2tpqc2AhCE1Jp6+yiobXtYnzFcUFAEBAEBAFB4KoQaG5unth84C21tdTU1KFv1hF0Mpqs7Dxii/LYExlFSHAwiSnppGfkYGyvo7BYQ3LIKVJj4yjQVHP4yH5yKqoo1w9ibtVwMDwWbXEyivRsIoKjqGmoJTz0COrSYhp1NZQ3d2EaGMA02ENhYyPl1VWUlpZQV6Oj39RPbX0l+Xk5VOmaCYkPJSHrFKqaatJCDpOYkUPEyWMkxOwhoaKJ5qp8EpPTSc/PxeawU6kpJreglJb6JjJVJTRqs0hOVpBbUIbHaeL44SSKE48SGRJJVFwcDfoGQoJCURWVUK6roCQ9kejMHAqrGmhobbkqmSICFQQEAUFAEBAELkRgfHyc9vb2iQm4z+uipaWZ3n4TloE+urp6cA7Z6TENYDT1YzCYMJkG6Oxop7PPgLG/j/6+Htq6ejCajFidTpxuHy6HmY7uXtxuD50desw2O709XXT29NHW2khrW9cZm73eEWzDLjmcpuZmhka8jI760Hd20NPfS1dnBx09fQzaTNiHhjAaumnRt9PZ0Yl5oAezc5iRIRt9fb109Rvw+bx0tutpbtVj6OmhtaUDh20QfYcex7AbRj10dfRhsQzS19+PYdCMa2QYg9GIwzGEvktPT5eebsMATS06DANfzW1+xmixIwgIAoKAICAIXGUCUv8zm802MQG/yraI4AUBQUAQEAQEAUFgggQkAXc6nULAJ8hLeBMEBAFBQBAQBH4QBCQBdzgcQsB/ELkhjBAEBAFBQBAQBCZI4JIE3Gex4KysxFlRcflrVRWjTv9UpAEb7XY7Uk86qTv85a7Si/yRkZFAkGIrCAgCgoAgIAj8IAgMDAxctrYFNFHSyI6OjjNjqEgJuyQBd5SVYS8qYqim5vy1ro6hWt1X7rpv3ndotdiLi5F6z0mLJN6VlZW0tbXJven0ej3SKgmytO3s7JSNln5/8+r3W1dXR09Pz5lwfxC5JowQBL5jAj6fD4PBQFdXl1wfent75a1UN3p7e87sS7/FKhiIMnDly4BU96SOZYHF5XLR2NgoC3hA1wJaFtC4gOYF3M/eSsf0+nZZI+vr62VNDIR9SQLuLC/Hd87TcyAgRn1ndi+2Y8nMZHzUP4qZVIC0Wu23niKN/OYdu/jwa0NOp3xBCtwYfGuA4oAg8N+YgNlsliv68LALt3sEqV5IF5Dh4WF5ICNpBESpTkluYhUMRBm48mVAqmtGo5GhoSH5SiM9pEo6922LJMITXaQOa9LDbmC5NAGvqMBntTLu9eIoLcVeUiI9wzPmdWJRFmKtqsfV04Orvoah/kHcZjMj+jaGmppwderx2hzg82FRKM4IuPSEUF5eLttjsVgICgoiMzNT/t3ZqUdbVUWHvgPXkJNe4yCdXd04HS56u7sYcg3TUF5Gva4Vu92BFJYQ8EDWiu2PkYB04ZCeAKRF+pxTr+/EYrVjNvbR1nb6t9OFe8T1Y8Qj0iwIfCcEpBtpSbilRepk1t3dLWuTtM3OzpbdpGN2i5GK0lL0bS00tXVgGRykW9/OgMmEpb+Xhro6dNV1VNU3Mez24XTY5ZboQCIuWcBHHQ75HXbFbbdRMXWqLOCjLhOmggYGs1S07T+OIfwEHfEJ6CPj6As/RU9MNK1BMVi01bJwW7Kzv1HAq6urufbaa5kzZw7NTc2o1MUkZ+fQ3dVBTloyiuIKkqIOkpKeIA8YExocQU52AursclnApZHbhIAHslZsf4wETCaTLODSkMGFqjy02gpqG5uoq62np6mShIQk8os09PYbfox4RJoFge+EgCTgknBLi7QNPIFLD6fr1q2TXxtLx/o7GklNjCEmMpKo+GQyU9OIDgklIT6Ug6EpFKkKyEpOJyg6mqb2FuxOl/xqOZCIyxLwsZERtDfcIK9SQKMuM4ZUNabMPNqDwrHkZtCdEkfbyVjM2TkYctJoOZmMvb6Jcd8o5wp4RUWFbI/0sn716tXs2LGD7q4uNOXlKAuL5KfuxOhwUgs1RJzcSXxSBFnZ+ezbd4yOwVa66rqwWqXBWoSABzJWbH+cBAYGzLTU6+jqM6LRllNXV091XSNNDfW01FZSVllFna6appavmuF+nKREqgWBq0fgXAGXnrylpb+/H6VSSUREBF6vD0NnI4UFmYQGnSBdkUdqRjrHT8UQGx/CvsRimhsb0BRpKKlU09RRx6DdRYdef8bwSxZwqQldWixZWUjvsuVlzIO9oIjhzn48FiPOqko8Q26G29pxdRvwWiw4dGW4TQPyE/u3NaG73W4KCwvPNKk7bWZK1MWUaSpw2G3UNLaSmp2O1WyjvbkJk92Ja8SFxWLCahMC7s8M8f/HTEB6Au/Ut8lNcNL7MqOxn2GXG6fdimnQgsc3is/nYcTt/jFjEmkXBK4qgW8S8LNbh6XmdUnvvCPD1NT4R/RsbGygXd+GTldNZ08/NoeLRl01rR19DLmGGPG4sNkdl/8ELvUg95hMjJ/10l3aP/v3V1S+uePZmMvF4Fmd2KT31mVlZXJ3+LMTKN1ZnL+MMzZ+jvvpaKT351IzxdlhnH++cBEE/nsTkARc6rUqLaOjo3K9kqbilfdHJfH2nVmlaXXFKhiIMnDly4BUD6UbaGmRmtClr6mkuifpWkCjpO0lTY89DpLOXXYnNknAbSqV/1tw6Xvwy1jtUue30lIClks99aqqqmhqarrod3Ktra2y8YHv4gJbyV2n0515zyBTE/8EgR8hAamXufQqSWqqE6tgIMrAd18GpPpntVplsZYuQdL4JA0NDWc+JQvo1uVspc+lA83xUtiX1IQuffo17vEwJq1u92WvgTuQwPVVMuJK3AV+81N7IBaxFQR+PAQCd/r+u3zpTl+sgoEoA99VGTj3SiO1gF0JjZPCkNIQWC5JwAMnia0gIAgIAoKAICAIfL8EhIB/v/xF7IKAICAICAKCwGUREAJ+WdjESYKAICAICAKCwPdLQAj498tfxC4ICAKCgCAgCFwWgSss4GNU1dfLY8C6PV75O7fxUR+u4WHZOLfHzYjHI+9LXeq/j6VNW8gXu3ZwMjyMboMJtzQ29PAQo3LHgHHGJzDu+vdh98XidFj6CTm2l4OHImnvbKaouIx+g1keLEA+d3wMl2sYj8fL0JCT0dExfF4frpERfF7/N8FjY/7x6S8W11U5Pj7GuPR3+vNBn9dffqS4bA4H9Y0NuEfc+LtvjGO1WrDa/WMNS506RkZceOUvDKVPDS9g4VkdQBgfY8znwTnkH1bUbh6goaoZiYLER1pcTif69jY0ZXW4R6TxxIflb6mlYx6vF/DHPeS0Y7VZcDqHGR0bxyuVK2mVOnuOjcrjjl/Aqgkd8jgGyU6MpUnfhWNoSB7bfGxcisstf7LiO23z2XXL0NGByWCWe8JKlX3U66K6vo4O46Bsl1f+rGz0dPmfkBnUlKpIycjGOTQi13Wfb1TON+mzGbfHX699UofXs4Ib9XkZ8XgZGx2Vv0uXDsmdccbH/d/D+rxIDIdHJv59usc9wojbS2dbLSa7/xojfd0il3Ov9OncGD6Ph/HTXNy2XlRFGmoammV7Xa4RHHY7+uZ6+vr6GXFJeScx8uC6iB12cz+1NVpGfN4zNvd1NZOprKBX7x/32j1kpbO7E++wg5ryOjr7/CNz+bwepLHqzYZuKitKkUqRtIx6vYyMeJDKpWvEI7M6u7ie9nZZm86uDnlozxGPn6/T0o9OnUORph3PqJQXo+gaGvGMjtJfV0ljXTuj45L7GMNDQ0hlq10aCczh/zRKrnMul8zYOSRdP8dwu4bx+q7cNUTKj0CZka5bXrdfO1xDdkrycmju0Mtj/Eu9vIeHnPT3dlHf0IbH7cIj5b9U5k6fI0GTwuvs7ELf1YnX55XzWKo70jJ2uoxcFtyzTpLyVrqmSos0D4HEQ7q+Sp3PpAohlTnJ3sHBQflaIl3nbDYLzY3tOOxDjJy+xnndrjPl6qzgz9u94gJ+NPwkeZkn2PjJFg4fDaamVU92YgTHwpJQKLKIi4sm8vh+tu0+TK/BPyjMeVZdRYe+xkq279hEUNgJ4uJjWf3pJk5FhJGckELoiQPsPhaB9/REK1fRjCsedLuukJcev5uVnx2gvCyTTz7dwY7tO9lz4DCtXQZ6Ols5eHgfOap8kpOiSExLJSk8nM1bNnIqMonS7DS2bNqKqqzxits2kQDHR13UVebx2dq1JKZmEB4ZSWhwGFmKAkKi4li95iNiE3Pwy+ooG3ZsYdnGL2jq6CE/LpwTwSHEJMaTGBfBZ9t2YnH5K/t5cY95KVCXkJcew5FjJzhx7ACxSUnExQZx/MgR1i1ZSVxeBk7pQgoURAax8ZPNrF21k6TEeHZ98TkRYTFERsRz9NBejhw5yOGTwWQmBnFw/xdkpqYQFxlEWuxx1q7bSlxaJmnJkRzat4+0LP+Y/+fZNEGHBm0Wzz96G1v3BpGrUhNy+ABBh4+za+9Jjp44SGxkHFFBR9i57wRWu/+mpF6lIiM2hE+3biNXXUZORgIbt21mxSebOHniFKrsbHn+gW6rX1wuasr4KAe+3Mj7Kz9FkZ5LRUk+h46dIi4xluDD+9mydYdcxnZ9voX0zAK/iLudpCYmEJ+chbY4m2P7DpCpLERb3069toz9az4hJDqdHbt2UFbbcFETAh762hvYs2snB/dvodnoFxZDZxtHTwaTocwkdM8hTp08yeZNm8gpLiZ4/yZWrNlKREwk1aUKgkPjCDp6gn279pCeGM3+40HkaYqJOHSYIweP0zP47TcT3S3VnDq4haCIZKKi4shIS2b7pvUs+vA4+THhpGblkxwXT1FhJkd37WH9mi8IPqGgta6Oosx0kuKi2L3tEw4d3Il8ufc4SImK58jJSJS5OcSGxbB3zy6OhsQycvadUCDxl7hVqXJJPXWAz7cfJTu3iJjwQ+xYuYTPdmWiUasozM5gx4Egqis17PngbXZ+eoDcwhY6OtrISY4lOj6JxMxMunp75ZirVekcOxlGbV0TSQkxpGVkExoUTHZBKVdCCwcNfSTGxxAXHUFCaBgng0PYumMXSdKwo2EnWfzG22Soi0iJOkaaUknYiVOcOHKYvftPEJcQQ7w0ZHDkSTZt2kdnn1m2WZWdxFsrt1CoUhASeootWz8jIi6d7OQoNm3bRVmjf7S0S0T7Ne82Yy/H9u0lLDKLqOAgEmNjCTnyGYcjEtAU5xB+MojdO7ezYX8IOYo0tuzaw6ZNa9l/PI3itHiOnTxOqiKLqJhTRESGYRn6luvY6VivsICPc+TUAZKi1zJn2lw+/3w/B+MTObBxBTOeX8TxY0fZtXkdz913C7Ofe5vapskD+xq9CfwYcZpR5KVRkJ/M1u1buf/RpwhLU7Ln4008/eiDPL5wJSPe76d1YALmf6uXhrJsPlm1mNLaFkrzo1m58jOeeeoZnnv9DYoqa6mu0nLk1ElOndrPG4s/Yse+7Wxbu4kPlr7B5sNxHPxgAbdPnc7hcOW3xnF1D4wRcXgbjz/zNIsXz+PTDev4aNmHvL/hMCqVmhWLX+GDTz4nkDOf7f6CRR+u5MP1n7Hn0/WsWrOedauXMG/RGzwwfRZdg6efyM4zepxTR/bzxKy7efbN5axYt4njxw4w/8VpHIuKYd3Cpby3cQMDDv9ddE1GJBs+3sCs++cSl6xkz86P2L1lE088/jpvvfE6n2/7nOXvryQs7CRbVy9k0879rF3xKsH71/DY4/OJSEln/aqFvDv/bZYv3XOeNZfi0FZbxCeLH2Lr8TQKitVsen8Ri597lReX7CU+JZJd69fw8sP38dSrK87cHJenJHN0+xrmv/Mux2Li2bl7G5999hFT7p3GvAXLiDl+kFdeepn67oEJmTI+6iEnJ55jh09RX1hAdtQBnnhlHu+vX0lq7Cnmv/ICW7/cyvR77mX3/mB/mJZ2Nn+6id3b9xIWvJuV819n1apNrN+wl2P7DvLh7Lls3BXEso8+pn6CQ7xKLTVadR4LXn2WBXNnUdPvz+86TRHvrfmUQ0d38/4TC9m06ROunzKV3QcPsnThPN5ft529X24k7tRWPv54OyEhEez57DM+/3glr723nkNhJ9i04hO+3PwZOeXfPoNUe62az1a8wsd740iNjmbJwuUseecd5i87SEFcDKtXrWb/kSOkxR5h1qyXWfvJPras3c2hrVtY+PIiDp04yNK35rB/3w7/E7ijjw0rP+Odj9ay5cBJko+c4LHHH+K1ZSvR20dwu5yYjQZsNrv8ZDyhzDrLU2JCFAc/Xsyyt7ez7eNt7Nq3g01LXuP99fHs3b6FDRs3smn/UZJiTrF6/iusXbSaZSu2ER52iveXLGXtpxsJSlbQ198vh1qdn8ziFe/xybZ9xIefYNP6zaxet4lDx8IYNJswGbqxDBqx2Cd4Y3iWrdJuq66SffsPsvPj99j8wafyjeGMp57h/SVvsnH9Wl6bu4RYZTqr336a/SdOcWDvMSKDD/PK3LfZ8sUXbN7wKdGb17Ng7nJKKmrl0CtV6by6difpicGsXP8xy955kf3Hs1j52hPc9tDDROR8+6yY55j3rT9rNTl88PqLPDd3IzkZ2ezdvIYNHzzF6j0nOLJ/E5tXf8SKhfNZsTOYyON7mP3C66xd9x579idxYO27LF/+DitXfcTRqBDiwvZTp7/wnAVXWMChua2J3p4aSvMqaW/rRtdUT1FeFvEZStatWc7bS94lKyMNRX7xmaecb6VxFQ6Met309ndj6O+mrqGB3KJiBixWelr1FBcoUZWWf63p7yqYcFWCtJp6aWvzPz0PGjuprKylpLCAzGwlVscQdpsFg8lIa1MNIeHx1NbX0lDTRENtFa3dBjoadaRlKug0fTWP7VUx9AKBSsPjNunbqaurpqmmkpzsXJr1vdjsTtqba6ksU5GakkJ8QiI5eQXkZqSwfNlKCrMz2fnlIQrKq9FVlqFQquVmwW+LytTZRmqmQh6at7mtnfyCArTlanr7eulq66GltYGUxFhCQmLQlKgprdCSnVmMwWShq6OB9rZmVAXFKHPz6dC3yLML1Te1oM5LJS41G42mmJ72OtQaHWabnRP7NnLwyBEa2o3fZtKE3IfsZmrLlLT12+jo1JOrzESr1qCp6sQ8aELf2EBpYR7Z+QWkpacTEhJCnjKPjpYGdHV1dPT2odGUkl9UTHZeLgWFxdTX61CpijDZ/TcsFzVkfAyTqQd9exfDFjO6snwSFflU6aoZHOinulxLU1sL6ZkKVIVFJMbGkJmlQFWkpkRTQVtTLdlZShrrG0lPSqe8Uke9uoamtk7UmnI6eyd2IyHZ2dhQS5ZCQXlpLhWVaiIjIzl+4CibDwRTU1dLXWkTvfpW0pPTaNV3oMpJJ7+4nLb2VjpbdOQoi6hvaaW0RE17cz2Z2dnUtjSjr29D39JEv9n/iuabmDhtA9RoC2noMjNgGKBWKiOKDArUdZgNgzQ31NLb30Nfr55ChQJlbgm6mjrysrNIS8ogt6QUjaaEMnU2SSnJJIUGsWndbsIS8ujq7mWg10SpOofS8krMVgcO+yDd7W0YjAPyK55vsulCbtKEUK115dTV6GnRNVJUnE+JKp+a2l7q6xvl2a46+/roaG0kNy2FKm016SlpaLXlJMbFUlJeQ0Or9LQdTVhYPFXVOhTZCoq11ZSqC6msrKEgJ4eaugYcVgPtLbX09ujpNfmffi9k2zcd0zc3EhwUTHFxMa31rXR39aHIyKS+rp4ydQFZmUq6jP00VJVSWFRGU3Mz1bU1lJdXUVJSSJG6hP7mZnSVtahVCiIiI1FmK0jLzqWzs5Wa+nrqdKV0dQ/SVK0lKzubAdu33fR/k4Xf7NYhlStFGqriWmxWBy0N1TTpimns7KO1sRalQkldTQ3K3FyKVCryC0soKyuhWF1LT2s9WcpsquobMJr6MPR2YHVeuF5ekoBLnqW2/LOHY/TvS0M0+lfpnc3X3kFKA0hIaR0fpVxTQFFp5elmUP9Qj+eH9dVQj1frmJQOaZXfwcnvP756Xye987la8V7NcKX3fVJ6pDj872/97W6SmzSIQGBYTX+ax8+kX8ov6Wkm0Eonva+9mnZeKOxAfsjFZVx6ly1Z5bdfchv1DJOvyCA2LoE+kwWLqY+65i6cg0bau3pPvwOXX65eMA1nxyO9M5XYSItUJvw7I6jyFYSGRtPQ+tXwvBKbsTH/YBiSPykcKT2BsiRbK/mR64DfdulYj74Z0+CgHPSF0n+xY5Kd/jjG5PejEh/pN0i/pfyXfzA+5iFHqSA0JITapla/u+T3dLmX0iAtUlkPvOuXhlu9WPyB41KapFUuU6cHiJEikdz84frDH+jrJjEuhgxlPo4RPycpbn+++nlL50i+JVsCPAPxXGwbiF+Ks72hTBbwzMw89H1mOZ/8xsj/v8ojOR4pbr+9gbTIdgeuC/htlN7Xf5sNZ+eF9N5cPl8e5nlcfo/u/y3F4WfhT+dXxwLn2y39pCXHk5yQTGVVM45h6YX02BlG/uvR14f6/DabLuQuxy+/0/aXXyltsmly3xPZfDkPZB6ny5UUt/RbWqStb8SOUpFOeFgcbV2GM9dPuQ/E6fyX/fl8Xxu05EJ2fdsxm8VCX7/BX9+kvjHyhcpf3iW7pOtCwDaZpVSWz9jqr6eBctZcq5XLhqaqTu73IZ0nhScFeXa/nwvl97fZea67P2w59+X6EYgnUL4DNo6PjfrtPV1/JDukkhKwWc/2uoIAACAASURBVApHWqW0nRuHzMKfZbIfaajWn/zkJ9L6k9PO37yRApOGajx3RJnzI/B3SJLcvVLng9MXh0CofuPON+zccK/2b6kDgWzj6TGhA+m42vFevfC/qjiBtJydPn+8X12opY4cZx8/e//q2fj1i9G3xnO6zJx9XLIvsEiVLXCj4r958d94Bcra2ed90/7ZaZX2z/4thRFYpLL69eN+xgG3wFaKI7AvbaWZhvxbr1wppXC+yY5LdQuE+fX4vmIasCFgv3ThCPgNbAN+zt5eqh0B/+eGIf0OxBO4WEm2BG4QzubyTedKdTIQ9kW3Z910BIRSiku6UZHt8PnDOtumwH7ADt9ZdUC25xLi/5r/s2w5127Zn3z862VEcg/cQPnzS7qZPL8OnwnvHGE84z5Rm0/bEKj3frtOMzoTxlfXh6/s/sotUK4CN/qSDef6C7hJjC/ZxtN2SJ0gA3UvEEbA3kB8svtp7oE4A8ekbcAtIIqSYp/tHtgPlIVAPJPbfsVKDkey40y+fXXsbDsD+wF7L1YHLlvAA5kX2EqA2/WtVFZqqKrSUF6upry8mPz8TPlF/eYNm9GWaTCbTXR26omLi+Lgvt0kJUZRVlYgn6PTlVNfX01jYy1Gk//9SiB8sRUEBAFBQBAQBASBbyYgafCEn8DPDUJ6IpfeVxYUKFCplKhUCrKyEliycD6333gP7y17j/b2NnkGFYPBQHhEMB99uIw1q1dw8uQBiouVlJTkUaYtorxCTXdPx7lRiN+CgCAgCAgCgoAg8A0EJi3gzc0NlJQWUFqaj0ajIi0tjidmPsb1f7iDRQuXIX1/ODw8jMUySFR0GGvXfSiL+IF9u9BqVVRUqKmuLkNXW0F//7f3+vwG24WTICAICAKCgCDwoyUwaQFvbW2Sn6C12iIqq9RkZSbyyLRHuOmau3njlTdJiA8nPy+DtNR4Nm38hNdemcuLTz/Hnp1bqa3TyuJdIzWjN1RjNPb9aDNCJFwQEAQEAUFAELgUApMScKkjQ1t7C+XlJehqy6mqUXNw35fc8Kd7mHLddF6Y8zrvrXiP1as+YsXy5Tz/7Fzuu+NRbrl2GvNeXUhqShx1deU0NNbQ2KRjYGByn9lcSsKFX0FAEBAEBAFB4O+ZwCQFfIyOznZq6yvJz8/m3cUruOX6B7n1xlm8/vpiVq1ey9p163nvvQ/5aOVqPvhwFc/PeZN773yCKdc/yOwHn+Tgvr00NlXT1t4kd3b7e4YpbBcEBAFBQBAQBL4rApMW8J6eDqqqNbyz6F1+879v5Df/PpXnnnmdbTu2sXjRcpYvf5+33ljEow+/xMbPNvHBe6t4/JEXuOf2R5n6t+ncf/tM9u3ejb6jCav18j76/65giXgEAUFAEBAEBIEfCoFJC7jB0ENE2Cluv/F+fvNvU/g//zyFW65/iJdfWsAjD7/AO0uX8eZrb3PrjQ/z2qtv88yTr3HfHY9x+40PcedNM5h63f28/uIbVFaU4HB+f6OA/VAyRNghCAgCgoAgIAhMhMCkBbyvv5uszDQevPsR/s8/38S//8ON/ObfpnLHrY/w4H1Ps3jRO7z6ygJuu2k2r7+2gMdnv8CdUx7m1use5PYbpjP1+vv4dO16OrqasdktE7FZ+BEEBAFBQBAQBH70BCYt4L39XXIHtqceeZ5f/tON/Nv/dwO//tdbufu2x3jgnqdYMH8Jr7w0jynXPcQrL73J4488zx03z+KWa/0Cftvf7mPbps309rdjtfmHm/zR54oAIAgIAoKAICAIXITApAVcakKPigpjxj2P8Nuf38ov/tfNTLleEut5zJr+LPPeWsTLL77FNb+7l8cefomXX5rHQw88y91TZ3Pv1Jnce8sM5s6Zi6pAiVM0oV8ku8RhQUAQEAQEAUHAT2DSAm409fL5li3cNeUBrvnPO/g//3ILD02bwzvvLOfhh+bw1ptv8/KLb/LH39zNow+/wGtz5/PQtGe4Z+ps7r99FtNun8Vj058gOTFOCLgolYKAICAICAKCwAQJTFrADcYetm/dxh03P8Cff33baQF/lqVLl8lC/dYbC3nlxbf8Aj7reaTfD977JHfcNJP7bvtKwKXJ2+2OiTehj3tHaKktISIpheLCXApVRZQWlKIuKqWjuZXSQi3mQRv1laWkZGbQ2N5JV105utZeDP160jMyyc/XUFauITlFiW8cRpwD5GQU4vH4yI9Ppra2RZ6rt12nIrexC50mi9KyQqwuNx3tTeRmxpGvUJKQlo3Zap8g8m/21tPeTEJQFNrKSrIVmZSXl5FXUEJLSzNF2lIMFqt8osnYh7qqTN439ndy8uQpzKenwXOa+klKTkXX2CofH3VbKS1W0VDfhkqdjc0zDh4HyvxcdA06SgoySUxVyH4H9I1kpiqpqGqmODmL1o52slIKqNHoSFfm0FRfRlRoNM3NLZRrCknNyJDnJe7u19PS3ozRbGGwv4/uzh6ZpRzoZfzzeT1oy1WoCorIyVaiLi+nKDeFnNwc0vPKSUtKpaSkDLc034hnmFKVitJMFYmRESSn5fjnVr5AvGOjPupra8jPSCKvsITMnBxa68pIVGTR3FBPSW4xTun88VHK8rLJVWvobq+joCAVaXJJc38nSkUW1aV5HAxKpKtvAJ/HiSJTIU+xGBoaTElZNb7TMwldwJSrdqhVV0RRfQcOp5nCnGxs1m+fFvOqGcE42vJi2ttbUGYmU1bVcvWiukDIA3095OVIU7yqySmsIj9XTUWVDqkqfFeLNBVov2mQ5rJi6muq6bUMMmgzM2A2Mzw0RE9nBzW1TXT2ff/jYHjcI+g7OmitqUJb3cxAfxt60yC9BgNWux3p+lNepKWiruX0THhXnuKQ1UxyRg5N7XpcTgfxUZHomtqpK1NRWKqlqb2FyPAQKnQthGel095YSWGumqJcNZn5hdTXqMnKSEWZqyFfkSJPGR0XH0Vjaw8mQxe1VRUYu9vJydJceePPC3Ech81MX18fzXUatI3tGA2DDFmt9JuMOIec9Pb2UFWrwzR46V9hTVrApXfgO7Zu5/Yb7uUPv7qVX/3sFh6Z+RzLli3noWnPyk/gc1+axx9/fZfcgW3pkneYNe0p7rp5ptyE/sBtM3l02uPEx0Zis09cwKXSY+pqIigyhrySPKqKyqkoLqNEXUJHWweqAi1d7d2EnjhJQWUV+dkJhH+5heCMcuqL4knKyESRVkhKroJ9O3bSYxlmzDtEWmwujY2NfL50OcXqahxOB9FHPmFveilN2lQKC9KRZvyzDxrJTIwkLjyck8HRdPdObiIWh2WAiBOhFKgKaaooolRbjVpdSl19E8XVJbR3tWAyGgg98iWHoiKRxpZvqC1jy+pPqW7qkqdoHejtIjwinPS0dDo6OihQJnAq+BTasgaKNck0dfdiMhppaKilsqKUxNhg9h0+SKfBhNXYR15OAeW6DvLD42g3dBMbnEZcsBJNRyflxZFs33GIpOgoNOVqlLEHsHogWRHB/vA4arX5fHkknLSUPEzDX83mdV55voiD2+1Co1Vxcv9hdh2NoaO7iS83b6AoN59PvkhDV91AZ1M55eoKrLYBqstKiD4Yxsn9e9l7MhzDkPciMYCpr53IIwdJzqmguLGGrnYd2Xl5NOjqKMpU0eUcoqWxhSJFMYm5iRza8zGhp3aiaeqmvFJDS0MVuVGnWLPrOJrqehwD7aQXVlJfVcXn6zcQHZ2CzfsdKsQ5Ke6pLyShqJq8IiUHvjxAX7fpHB/fzc8yab7s+mqSI08SmqTA7rrw3MZX3qpx8lUasoqaGbL1sn7j57z/0adoqhqufFTfEqI02FVC7CEyc0oJ2xdGca6CA3GRHDmyi8SkZCJjc6gt15CWVUZD+/c/lHR7ZxsaZTQxR8KIzaygJD+EvckZJMaHkxgVTX5NC6kRaSgKq74lxZN3Hhv1oi3XoGtswmm3cOzAXjIKSmhsrCEpXUGFroFkpQqbY5jdkYfo02vJz1aREJ5GSGwCUUf3ERoZyebPjxB9/CjHgyI4fugw2Yoc9u/YTExMIobeLhIjcydv7EVCGDYPUJieRmSGgvycOKLjEog4HExKcDDHElJRZEVTXasjPT2FvssYiXSSAj5Kd6+e7du2c9M1d/Ffv5jCL/9pCrOmz2HZshXMnPYM899cyGuvzOOP/3EnTzzyIsuXreDhB5/hrpsf4t5bZ3L/1JnMvu9RoiPDsdgmfgcy6nWRkRBNao40hGsJRXlFJEdFEhoZh3PES3NDKx1d3ahVxeSo8snLzUEZHUpktpbO1ipycpRkZRbS1ddDblIErQZ/D/jyolp6enoJ3/MlxcWVGIyD5KccIyy3ksGuKurryjDZBinMTiEiJpmCwiIyclX09E7m7nkcTYGCqMRUeVL6gpwslFkpHDkRRKdhkE5jB11drbS3NpOcFEdiZiatra30dHWiSk+lqkkv3w2Pekbkp8vC/BwqKyrQlBaTlZJIY1MvHV1amvUd1FeVcSI4SH7CL8pREh8VRXVzO+WqLMKj47A6XdTnqbEMOyjNq6Q4u5TMggIa6rTyk29+Ti7q0kKSE2IY8o4SlXKMbceD0KiyOBkeR2xUBoahyxdwaZ7f0sICTgZFkZSmoKxSS3piOMqcbMKTishMy6RKq6GyvIp+oxFTbwdZsRkUZKaTnpNHk+nCIjHm85KeEE1ScjYlai2KwgLUuSmERCVgHrDSUtNEx6CF2tp6ihVK0nOyycuOJzn+GAVlNWjLtahys9GVV1BQUkp1fT3uYQtpmUoqKiqpLC5FpSqkc9DNkGUAx9AIzuERRjwjZ+ZPvkidn/ThIWMThXV6dDWVxIVH0Nc78Xo16cjPCkDf0Yyhv4eOpgbScnOxOB1nHf1udtubW8nOLqC2poKopBy02hpKS9W4R7+bGyxJwLMyIkjPVJEZmkZBtpLjqTF8uWcTx46HosgpQ1OkprSslpaO71/AuzpbyVXEkxmVSka2lkJlENtjY9i1cw8JMekUVukoVqgoKtPhPT3X+ZXOSUtvF0cPHKautQv7kJX6mnLyS8uorCwgPbuQguJqjBb/w15iQQrDtg6a65qoqdQRcSqc1Jg40hTpHI6IokpTSkZGATUVVaiL84mNiEORqcRmt6Mp0OFyu3F7PTitFoYdziveqjBks1OQnkWMIpPSkkySkhKJORHJqf17ORAUQbEqk7Lqago0anqNl64hkxJwaTayrq42tm3dxjW/mcqvf3YTv/jpzcy47xnefVd6An+a+fPe5o3XFvCn39zJk4++zPLl78lP4HfcNIO7p8zgninTmXnvI0RFhjFomXgCpLs0Q18XPYYBpMnfzYNm+vv66DMYcXt8eN1uPB63PCG6ydjPiNc/Mb3PN4ZvbFzOMKvNzpDDSn//oDy5u1QQXcOnBcA3intkxN9UC7jHxxn1jiA9ITqHhzCZjPKE8zablT6jCd+oP/zLK8zjDA4Y6OnuweF00m8wyr87unpxuVxI8/eemdNWnvR9VI5mzOuhr6cPfaOOhNho8lTFdPX0YHee3WQ6js87htsz7Ddt1ENrux6rw4HDZmXQ4m/6dwwa6ezqZsjlxusakSebHxl24xlxYejrZcjpxGg0MDzixmGzYBi0YzP3ERsfSaRChcVuJ+LkMY6FRuGZDArGsVut2IeGcQ3ZMA6Y8XpccnPj0PAQXZ0dmE/bLCVIanIfcgzR39vNgPninyGOj47S19vPwIAZu82CyWBg0NRPe1cPbrcHj9tzphLbBgewnG5+Hh9zn+bnpb+vH+eQA4Ohn2GXR3a3mIxY7TYGTdI5dnxS+RlyMuL24vZ45Tz0B3D1/4/53Lg8/puo8VEfY75JZchlG+z1euT8GZCaX21nl8nLDvIyThzHMmjEaDLj9khzo48yNGTnu0TiGrJjGrQwZLdh7O6ktFxLW3c3VqtDvkZJZVAqM67vvIXifJw+j5vevj5sNhtGgwl1TjpFDe0MDFhwDbsYMBmxmM3Y7A5Gx6/OTZDL4aS5uR3HsAuXexiToR+bzYll0IRp0CrXpdExf/l2DDuRtECqt9I1yjJoxePxMjAwIIuzecCIzeFgoN+AzXn6Gjg2Ks8ZL13rpbm6faM+3MPDeEZO1/HzsUzKZdhpY8A8KLcm9JpMFBVrMPYbsFptuN1uDCYTA1a7fJ241IgmLeAdHS1s+3wbv/v3W/jFP97Az396M9PvfVpuQp85/VkWzF/EW28u5M//eZcs4CuWf8DsGXO48+aZ8kAud934IDPumS2/0xgwGy7VfuEfGPW6sVmtDA27vlMe0vtkSfQC8iDNOjfi8Qvad2qIiEwQ+DsiMOqbTAvVd5tQn9fHeKCCf7dR/7eNzee7+Gu+iSZ+UgIuT2aib2Tnth386p9v4mf/z/X8/B9v4oG7n2T58hXMfuhZFs5fzIL5i7nmP+/iiUdf5IMPVzJ71ovyt+B33DidO254gOl3P0xEaBAm8+TeI0800cKfICAICAKCgCDw905gUgIuNaG3tjaw54vd/OJ/3cQ//d/X8st/upkZ9z/Ne++/z2MPP8fCBYt5e8FSrvnd3Tz9xEusWrWKR2a9yO03zWLq9dPkoVQfvGMWocEnkXq0i0UQEAQEAUFAEBAELk5g0gIuTQN68MA+fvlPN/HT/+sv/OpfbpYHcPnwow/lJ+63Fy6Rh1O95rd38fQTL7N27Voee+RFbr9xJrdeO41b/no/D975MGEhJ+nv77q4xcKHICAICAKCgCAgCDApAZde/tfWV3Hq1DH587F/+B/X8Muf3sT0+5/ho5VreOqJV1i0aAnvLF3ONb+VnsBf5pNPP+bxR17klutncPNf7uema+7joXsfJzoyhN5evcgSQUAQEAQEAUFAEJgAgckJuM9HdXUZsbFh/OFXt/PT//lXeTayO255hKVL3ue5Z1+Tn76lKUX/8rt7eerxV/jwg4+QOrfdfO10brzmfv72x3uYcc9jxESH0N3dPgGThRdBQBAQBAQBQUAQmLSAl5eXEBEexF9+e5c8E9lf/3g/D9z7FPPmLealF97k7YVLkXqeX//nB2QBX7p0Oc889TLT7n1Cfgq//vf3yCOyhYYco7PLP4KYyBZBQBAQBAQBQUAQuDCBSQu4RlPE9l1fcOP1j/Dzn97A9X++nycee0H+jOyVl99izjOv8eLzbzLlhpm88erbbN68kcWLFvPsE89z9y0zufb393H/vc9w+Mgh2trqL2ytOCoICAKCgCAgCAgCMoFJCriX4uI8Pt20jSde+JDb73yB2259jNkPPcf7733I88++yrR7HmPafU9y3TXTePP1xcTFRrFp02bmvbWYh6a/xMzH3uatJZ9w7MRRGhqqRbYIAoKAICAICAKCwAQITErApZGWcnIyOXhoL0tWbODp1z7lteW7eXP5dt5d/TnzFq3izYWreGvRWl54dQXvvL+R3YdCWbP5IO9+fID5H+7lhTc/ZtWaDcTEBFNdrZ2AycKLICAICAKCgCAgCExKwKWBXDo79dTVV6PMUhIWmoFS3URRdSflDZ3Ut3bR2N4tzwTWpO+ioa2L6iY9mlo9xdUd5BTqCA9JIE+ZTVt7IyaTGIlNFElBQBAQBAQBQWAiBC5JwMfHx+XvzqRtYJ1IJJfiJxCu2H7FWLAQLEQZEGVAlAFRBqQycPZySQLu80ljX0uThHjkVdq3SxM4DJrPrGazNJnDID093VSVV9PZ2YnTacdsNqFvb6dTmoxC8mPxn2OxDGK1WrBKY3k7nWfCDsQhtn7WgoPgIMqAKAOiDIgycLaIX5KAn6380r40lGpdvQ6VSklhoRKVSkFefgbJKVGs+uA93po7D4Uii/7+bhoadBw9sp9PP15DcPBhlMoUioqUlJYWUF6hprJKQ09v57lRiN+CgCAgCAgCgoAg8A0EJi3gDQ01FBbmUFyUS3FxDoqsRJYsWMA9t05j7eq19Pb1YLc7GBwcJD4hmtWr3mPdmg84FXyYkpJcNBoVFZUlVFVr6O0TQ6l+Qx4JJ0FAEBAEBAFB4DwCkxbw5uYGSkoLKC3NR6MpJD09nsdnPcZffzuVpYuW09nZxpBTEnAT4WFBfPThMj587x0O7NuFVquivFxNdY2W2rpK+g295xkoHAQBQUAQEAQEAUHgfAKTFvDW1kbKtMVotcVUVZeQmZnIzHtnccOf7uKNuW8SGnyYpMQoeajUdatX8cKzL/DMY0+ya9tmdDoNNafFu76hBqNJTCd6fhYJF0FAEBAEBAFB4HwCkxJw6eT29mbKK0up0ZVTUprL7h07+Nsf7+aGv0zjkZnPMX/eQt59912WvvMO895cyOwZc7jpL/fz6gtvERcTTnW1hqbmWnkdMBvPt1C4CAKCgCAgCAgCgsB5BCYt4PqONuobq8nJyeDlZ1/n2t/fzfV/nsa0+55h/rwlrPt4PQsXLGXZshWsW7eOlSvX8OLz87lr6qNMu/NRtm/eQkNjNe0dzXIz+3kWCgdBQBAQBAQBQUAQOI/ApAVc6jmuVufx5isL+P0vb+Z3v7iVG6+bwbNPz2X16jUsWfweDz3wNEsXv8s77yzn/fdX8smGjcx8cA43X/sA0+6YydFDB+jsasFqGzzPQOEgCAgCgoAgIAgIAucTmLSAG4y97N29m+t+fxu/+8Ut/ObfbuEP/3EXd9/+GK/NXcCLL7zF7VMeZtHCpby98B2eeWIujz78ElOufZAp1z7AlL/ey9IFi6lvqMIxZD/fQuEiCAgCgoAgIAgIAucRmLSA9/V3o8hKZ8a9j/IfP7uJf//Hm/j1z27lputm8MpLb8nN6HfcMpt5b74tN6XPmjGH226cyZS/TuPW6x5k6vX3suHjT+jqacNmt5xnoHAQBAQBQUAQEAQEgfMJTFrApW+3K6tKeXL2HH71sxv53/9wE//xL7dw83UzeOmFt5j78nxuvXEmr7+6gHlvLmLW9OeYdveTTPnrg9z2t+nc9rf72LxxIz29QsDPzx7hIggIAoKAICAIfDOBSQu40dTDgb17mfq3B/ivX97Cr/5lCn/5r/t58vG5LFq0jNkzn+emvz7Ia6/O4/VXF/L4Iy/x+muLuO3GWdxx4wzuvXU6Sxcuprq6FIfT9s1WCldBQBAQBAQBQUAQ+BqBSQm4NCZrX38Xy5as4JrfTuUPv5rKf/zrFP7w67t5dPaLLF26jFkPzvEL+Ny3eG3ufB6f/SKLFr3LHVNmc/sNM3hg6kPMe/VNNJqCSxTwcaxWEzbbEMN2OxaLBafVhslkZgzwebyMjo7BuAejycCwx8f4qBev1ysft5rNOOwO3MPDGA0D+Mb8g8SPuNwyIM/wEB63f3/U58blG2XUN8LIyJB83OGwYjINYLda6O03MOL2fA3spf6QwrFYHIy4nBgtFuxWKXwzo+Mw6vH40wJIVno9/ri8bjeGPiNe36gcnTS07cCAGbtj+HT0Y7gc/tcS7iEX0jj4Y94RDAYjTqcDs8lIX6//071R9xAWi5VRjxuDyeiPZ9jNsHOI/r5+/FzG8fq82G12Bgb9HMZG/XFfanov5N9us2Cz2RkZtmOyWBj1uBg0W3CPuOjt6cE86DxzumSvlDaT0YjZMoE+FOPjDJrNWG0Ohp0OjEYTw8MOjCYTY6PjeN0euXxIEdgtZqx2fzqlfJHK1ZjXQ3+fAbd7hIF+E0PDLtkWm8mAw+HEIc0NYPl+b0THRz2MeL3Y7VbMNpucl2eAfYc7Pp9UB71yWbZY7N+bHVazkX6DCd8YjI2B0+GQ69V3iEKOSiqr/uXrE1J813ZMKL5R35n8ClwbJ3TeFfA06vXQ19vHyIiH8fExjEYjRrMFh3UQu8OJzzciX6OkqLwuO06HjZ7ePuxOJwMDJkZ8XhgbZcTlwWGzyfNsSNdruS6Mj+PzSnN6jGAeMOGTLrDf0TIq2SUt50xIMpnoJy3gvX0dLFv6Hn/57VR+/8up8hP4735xBw8/NIfFi9/lofuf4aZrpvHaK2/x6tz5PPrwCyxa/A733P4YU/82nftvnSELeElJPvbTYjORBI15hqnRKDgYEoYiM4nMtEyUKUoUGTm06OrIzSjAYLJQWZxLSHQUlQ0tNGsLKK3V093dRERkJKmpeaiKCggPT8LjG2fY1k9CZCZut4eUE6fQlOkYGhmlXpNOUlULmtwYcvIyMDscNNVXkhh9kuLCHE6FhNCkv/xR5MZ9Lmq1Kg6ejEZdnE9UbBTKzGyys/JoqqkiL1PBwIBftLrbmyks8M+b3lCWzZ5jiQwN+wW9p7udiKgIdA3+IWn7m2tICNqHvreHlJA4fOPgHOwjPV1BSWERuRkpHAlKkHHrlOlERCeQkV9KckoMNQ2NxByMprhQQ2xSBpU1OspKcqlobKFKW8KpE2F4xsHY0UlrXQPdXb3YzL00tbficF++qHu9IxQUpJKemkViXALZqgKyksJITIonKkVF2KkwlNl5uNxjjLvtKNPSyYlOJ+TIYUIjkxm5SH0c83nRatSkRYeQnK4kOiGBOm0ewTHR6KoqyU7MQr4NGPWRnxxPkiIXfVM5KcmhSLLc19lCfEw0pXmpbN4dSltHPx63jdioGNQlpew/sIfcglI8bi9en28iRfmK+6kvU5Cu0VFdpSUmIQWLPXBDd8WjukCAXvILsmhorCUlLoKCktozgnCBk674ob5OPUnxseQoFSRllJCRlkthUSkj3+GF22410dnbT22+ggpNKZ0DA5gGDfT29csTOOlbW9Boq2np6Lni6b/UAD2uYZpaWqnXlKAq0WHoaaCpz4S+qxuz1Upftx6VooCi8tozN7qXGsfF/DvM/YSEJ1BV28CYz0NuVgoh0bFEhOwjU1lMVnYeiSmxNOu7yQ7dR7VOR3hYGIqMZA4fCaGqvo6y4jLCI8vIz1aSEBcnX1cTlHl0NLeRqyihpkFDXGwsupq2i5kz6eO2QSNd3V3oKvJQ1TTS3zuA3Wymu7cHh8OB20d40QAAIABJREFUvkOPWqulz3jp02lPTsDHxujp62D5kvf4829u4Xc/v5Vf/fPN/O7fb5cF/N1lK3h4xnPc+OcHeF1+Al/Ao7Oe5913lvHQA89w+/XTue/WGbzx8uvyZChWm3nCsMa8XvrbWohKTqS4Wk29tg6tWotaraazuZlshZqOzl5OHT1FeVMreWnRHPh0FfviVNSr40jNzycnS0NpYz35adF0D9pwOQdIis6mtqaGlW/MJytXi8Fg4Nj2FWyLVFJdmECBKguz04m1r4ui/GzqmuopzFPgGjl9dzXhFHzlcdznxtjTSkxqGqXlVdSps9GWFVOQX0RHSwPF+YU0SzcgdaVs3vAZx49F0NLWRo0mlwilCsPAgBzYoLmfKm0pxblKKmobCf5yJzvWrqa2vRtlVAItbc00t7bRoCuntr6d7o4mGlvb6WxrJ+b4CRKSUjkZl48qN4WUuGQiDsdRXdtEU1sd1XV1VJTlU1bfits5gDL+GL2OUaqVOYR9eZSCkkKC958gKiWRkh7rV4m7xD2fd4TK6lKCDwWx70QqRlMne7Z9Jovuhr1ZtLd2Y+qsIjcjjy59KyXFhUQfiSQ3LYXYlDSaLBduCZEKvLGnmcTwMDJVOqq7WuhsqqJAraa+Vkdeai5tg4NoS8vRqipQFKayZ/NyvvxiA1nFVeSXqunraqI0M5VT6Sqa9XpsxlYytI001zUTFRZKqbqUHpsH31VonZgIzpbKbBJLGhga8VCkSKOj+/sY4dBLYZGShsY66qo1ZJdosA591XIykXRM3s84ylw1eWWdMGph/abtbN++B21N4+SDnmAIY2O+/5+9946Tqsj39+8f398Nu/fe1XWjaV1dIyLZhEoQEFBEkCQgCEhSQHKQoKgYV1ddM0qQnJnA5Jynuyd2z0xPnu6Z7pmezjlOP7/XOQOLuqLgYNhrnXn1nNPn1Knzqafq1LtSVxEfu4uEpFyOf3iAtMR4dpw6wccfvMEn23dyIjaHopxcTiXlUV79/YvJt5nd0lJHVvIRTu44zPFTBeRn7efjuHj+/u6b7N97lLwyNUd3Hyc2tfB7K5BJLZ2V6jLKq7vjqblOTYlKRX7uCbbvjuWtD+PRtah5781X2bZyKdX1ddRWlVJTVc2xHbtISU0jp1jNq++lo1IoSEtORK8zUlCspLqymtR0JTXNao4eOEFCbMa3IenRdbfVTmZcIgeSEsjKOs6hQ4c5sfswBz/6iDd3fE5a6nFUZaXEJsTRrL/wxbx6JOBdXRHaDM0889QKrr9iANf+/nZZwK/9w12MGvYoy5efEfDhzHtiAfOeWCTPzrZyxSrGjZ7GnX1GMmTQA8ydOYfc3DRs9m4hOh9i4YCbgtwUStT11GjKKCoo4OS+fRSWqJHqPXW1TehbWynPzSY1N5ciVQVNJflkquoxNlWRmZlNUnIGdY21nPx8B7rObtEpLaySm2IKjp1AU6nFHwjQrE4lqbIJR5ua2moVbr8fRXEuJRotDdpq8jJzz8fkc7vpCqDIyaBYpaGhoZaU5ARiDh2goKSKYASMTc2YjJ04HWY06hrKFZW4nE5qSwo5JtXS66RJcCy0NDahLCwmOz0Jq91Ja62GwqN7cXVBbaEKu8uJTlvOwZMJmB0e6svKsFm7l3HNTDxJUmoGcXFZZMQeoarFSkWBmvzsfA4cOIHN6cZh66BWp6Ouqpy8UyfRm32k7jvI3ze/SUmNhg9efJ3t+/aQr++BgIdDqEuKORmXwLHYU2i0NcQc2kFmZhrHklUU5RejLMpGbzThCwSwGnWkHkuiOCeL7PxC6sz+c3OWVtAL+OS4ryyrQFFcQUpOHsV5CSRlFxH0+qmv0GLyB7GYOinNSSU5M4catYoSRQx1RhsNdbXk52RSmJpMfE4xldVaAh47icmZVFWqiDl0iozMLKyBKBG/j0AwTDAUJhz54WrjfksDeZom1NVaeaGhts7zf6++Ed4FXmxta8agb0ajzCchIxuL/YcWcGjUasjIzKCyrIgj8fkolBryigoIne4yu8AgXbDzrmiEuJOfkpypIGZ/AsrcLN4+sJt3P3yNrOwC0tIVVFeUUpCvQX+6O+uCH3IRb2hubaY49QhxB2JJzNSQlfAJrx49SXJyIoVpmeRoGlFlFFBSUccXl7W8iCZg0rfw+c7DWJweIiE3FeVlaJptqNKOczItn/TcAvJzkimubKAy6ThaZT5VqnxsXh8HP9tNaXkVNrudXUcUqDUVZKUkkpGSTUqegk5DJ7WNRhqba4mLjSdbUYEkgpFwUO6ajFzklhmfzUJxahKHkzNQFKUSF5/Ajnc/4fjnO0nIKqKkIJWS6iqyCrMw2y78V1gXRcCfWvAMV1/Wlz9dNogrLhnItX+8m5HDHmXZslWMGTmZfjcN5ck5C1gwbzGPPPQYq1atYfyYx7ij9wjuGzCSOdNnk5OTgsXaed7pIBoOY9A106Q3YLOY6TSbaW830tyiwyc1X8prlgeIRKN0dhjwBaUMNEogFJH7u6X+FLvThcftoMNkP90tEcXn7RaAaDCI3+eTm9Ahgj/SRSQUIBDw4XQ7MRnb5Ge53B78vu9e+5YDHAnTrmuhqdkg91u2d0phaZf99/oDRKR+e6kD9vQWCXU3UUvNXZ0mM8a2JsrKVDQ2tGBoM+INnBWLkNcjN3X5T/fVSv3KdfX1WO0OAv4gXaczslDAS7vZQtAv9Sd3Z/gBXwCH1Uqttk4uEEh97OFwBLvNQnunlaDPjTK/kNykDOw2OzXKPOKTUrD4vnsTuhREm1WKGw8Bnwtjhwmp78hsNuP1umlsqMdsOysE4VAQr9tLq64Fk/nbW3CiUquRTk+boR2n3YqpvR1zh1FuifD6/HK6OdMKL6Urm6P7WeFQd193VziAoc2A1+/H1G7A4+uu8ds6O7A5HLhtNqwOJ6FgGJ/LgdcfxOcPEgx9c8vAmbi9GHup2dEfCmOzmjF2mPmBtOqfTJfGm0h94GaTCbujeyzBPzn6AU7YpD5wk4VQqItwuAuPx0nwImfU3xSMgN9Dp9mKz+3EqNdT19woN5daLHY5XbQbjNgdTjy+H6Or48uWh4MB9NK74XJiMZmprlCg0RswGDtxub2YTUYs8hgSB2FpjNH3sPndLrQ1Up7jwh/w4PN7CEXB53Zgd7oJBX0Y2ru1Ihr0E/D65E+ULixmM4FQmK5IGI83hNVixmS147Ra6Wg3y2OJpAK1X8rnzFb5PZHezZDkj98vp4+LHSSv24nFYsXtsmPoNFGtbcRqNsu2+v2B7rRgd+P7DuOoeiTgka6IPIPa4ief4Y//cxuX/2oAf/zfAVx3xd2MHD6JZc+sYMyoyfS9aSjz5y1i0fynmfDwdFatWcP4B6fLvwO/p98IZk+dRWZmIp3mC+8DuNiwhX+CgCAgCAgCgsC/AoEeCbjUhN7cUsfTC1byu//qzW9/2Zff/bIf111+N6Pun8zy5St5cPQU+t48jAVPLmLxwiU8+sgM1q5dy4SHH+f2PqO4s89wZk15nIyMBEydxn8FZsJGQUAQEAQEAUHgRyfQIwGXmlQbmrUse2oNv/6PW7nsP2/jsv/qw7WXD+bhB6exevUaxo2dRt+bhrNw/mKefmoZkyfO5NlnNzBh/OMM7D2KO3oPZ+bkmaSlxdHR8eOPwvzRY0QYIAgIAoKAICAInAeBHgt4bb2GZ9du4rJf3MYl/96bS//jNrkGPmnCDNavX8f4cTPoc/NwFi54iqVLljN50iw2b97ExPGPM6DXCAb1GsqMSY+TkhKD0dj986fzsFs4EQQEAUFAEBAEftYEeiTg0shaTVUZ7//9Ha64dAD/+/96cel/9ObaP97Fo+NnsG7DBh595An63TKcRQufkid2mTp5trys6LjRj9H7unvpd9N9TJ0wncSE47S1Nf+sI0MEXhAQBAQBQUAQOF8CPRPwcJjycgUHDu7mhqsG86v/71Yu+0Ufbr1hGJJQr1u3gcmPzqPvzfezaOHTrFixmhmPzWXN6g3c2X8sva+/l9uuv5dHxk4hLuYIen3T+dot3AkCgoAgIAgIAj9rAj0U8BCqkkL27PmMm64ezB9/NYBrfn8X99wxjumPzWHlypU8PmMBdwwYw8IFS1i5cg2zZy1gyZIVjBw6gSF3PSj/xOyBYRM4ePBzWlrqf9aRIQIvCAgCgoAgIAicL4EeC7hSkc/Lr/6VPreM4fJLpd+A38WIIY/I63+/8cYrLF++muFDJjLxkcd5bOpcpk6eI8/ENmf2HKZMmMZ9dz7IAw/M5JNPP6Ghofp87RbuBAFBQBAQBASBnzWBHgt4QX4mL2x7g4mPb2LIiHn0vmU0o0c8yptvvEF+fg6bN73AwN4jGHL3OIbd+wij75/EM8tWsmDh0yxYtIoZ8zawaMU2duz6DK228mcdGSLwgoAgIAgIAoLA+RLokYBLMy1lZCTzyfb3eWr5VqbMeZG5K99m/qo3efGt7Rw/lcrLb7zHzNkreWrFVpateZln1r7Cmq1/55nNH7Jo7d+Z9sRGnt34IsdP7KWysuR87RbuBAFBQBAQBASBnzWBHgm4RE5altJms2I0GKhvaMNodmGyezGaHfJ0m51WO1aHq3subZcHm8uDySYtmenFYLLTUN+CUV6VxSFPb/ezjg0ReEFAEBAEBAFB4DwJXJCAh8PSOqoBgvI840F5f2Yu7fN83jmdSUukShPDfNFvcdzNWHAQHEQaEGlApAGRBqQ08MVFZC5IwKUmc7/f/4+Pz+eTF0uXFlG3WDrlxdSlY6vVTKteR2W5htbWVlzSxPgWMy3NTbQ0N2MydcjupXOSW6kGL30kd1/0XxyfZS1YCBYiDYg0INLAzzsNSBVoSbTPbBck4GduOrOXSgJ19VqKFXkolXkUF+dQVJRFYuIJtm7ayPObnpeXgpNEWq9v4eTJo7z91qvs3/cZeXmpqFQFlJcXo1aXyhPCtHcYzngt9oKAICAICAKCgCDwDQR6JOBSk3dVdaW8lndefgb5+RnylKiL5s2l/813s2LZanT6FhwOh7wc5NFjB9m8eQ0b1q9kx2fvyWKvUOZSWlZIWbkCg5hK9RuiSlwSBAQBQUAQEATOEuiZgHdFqKurkWveUu1bqoUnJZ1k0riJ9L1xMM8sWSXXvN0et7zW98GDe3h2wypWrVjGRx+8TUlJHmVlxVSqS6iqLqfDJGrgZ6NGHAkCgoAgIAgIAucm0DMBj0Sob9CiVBVQUlJIZaVCXlVs7LAH6X/zfcyeOY99n3/KiRMH2bd3B1s2buKxSdMZP3oib73+CtU1JWiqSmXx1taq6ewU64GfO6rEFUFAEBAEBAFB4CyBHgm4tB54Y1MdJWXFqDUqCgszeOett+hz0xD63Hw/D9w/iRnTn2DhgsUsmL+YaVNmM/6h6dw9aCxPTJ/PiaMH5T7w2voq6uqrsFhMZy0TR4KAICAICAKCgCBwTgI9FPAuWnSN1GgrSEmOZ+bUufS9eSj9bx3JyOGP8tjUOcx/8mmWLVvJ/HlPM27MVJYtXc7y5Wt4eOx07r/3YV7a+gJV1aU0t9Rjs3We01BxQRAQBAQBQUAQEATOEuixgBuMOrKyUpk2cRZX/WYA1/7xTm67YShjRk1hyZLlbN60hVWr1jN21FTu6DeKxQuX8Nzzz7Fu/UZGDp/EXf2Hs+OTDzG0t2C3W89aJo4EAUFAEBAEBAFB4JwEeizgpk4D7737LjdfcydX/3YQf/7dHfzlysHcNWgcM6bPZ9XKtaxZu56pk+YxoNcInpz3FOvXb+CxKfO4s+8D3PaXu3lxy1aM7S04XfZzGiouCAKCgCAgCAgCgsBZAj0WcGN7KznZ6Tx4/wSu+u0Arrx0IH/+w10M7DNGXn1szZq1PL/1ORbMX0bfm0cwZ/ZCVq9Zy5j7pzCo13DuuG0or217hXaTHofLdtYycSQICAKCgCAgCAgC5yTQYwGXfrtdUalk0rjHuOqyAVz+q4Fcednt9Os1mqmTnmTFijVs2LCRWTMW0OfG4cya+SSrVq9l/EMzub33SO64dSivv/wKxo4WHE5RAz9nTIkLgoAgIAgIAoLAFwj0WMA7Og38/e13ufXae7jikgFccclArrhkEP1vfYAFC5ax9cUXePqpldzVbwy9rx/KjMfmsmb1GlauXMOIeycw6NahvPHKy7S2NeBwiBr4F+JGHAoCgoAgIAgIAuck0CMBj3ZFaTe1snTRCi6/pB9XSLXvS2+XRfza398lj0LftHkTM2csYECvUfS+YRjTp85h9arVrF27juH3TmBAryH89dWX0elqsTsuZBBbFLfLjsvlxedx43S68LhcOOxOIl1RgoEgkUgXXV0heZ51fyhCNBIiFA7TFY3icjjweLwE/QH5nq6oxCiK3xuQYQW9XtkP6UskHES6PxzyE/B75eter/QsOx63C7PVRiAYks9/13+SP06nR/bf5nTilsLicBKJRAl9Yf5byUxpQntpC4eC2KwOIqfnxo10RXA4nfh83deJduFzO5Hu8Xt98r4rLN1jx+fz4rTbMXd2F5oiQQ8Ol4tAKIjT6cAfCMrh83l9WCwWXB6PPKOeLxDE7/VitTlkG6QEdLE3j9uJx+PB73Njd7oIB304HS4CAT8WsxmH0/OPR4YCfgJen2yr03X2/D8cfM2By+nE4/bg83qw2ez4fR5sdjuRcEROD2dC5HE5cHl8sg+SG4ljVyiE1WIlGAxgt3Zzkhy47Fa8Xi8etxuXuzuNfM2jf5BTkXAAfzDU/T443HSn7R/k0V96SCgUJBwOyUzcpzl+ycEP8kV6161YbXbC4aj8Pknx9GMwiYSkhSjOEehoVM6XznH1Bz8djYSJnLb1n1hJtv7TyYtnYiQcwmKW3rEQ0WiX/G7bHE6cdgtmqx27w4nD6ZDfx6BfyjP9uOz27vyh04zD5ZHzeb8/hM/jxSVpg8eF0+MhHAnJ/kl5ZjgYIBA+87ZfPPvP5ZMUrnNHf/RLi5Scy4+vnu+RgHdFuzB26Fm6aCWXX9pPFu4rLx2E9Ln6N3cw+dFZbNqyiVmPL2RAr5H0/stQWdRXrVrF2nXrGHHfowy8ZQivv/wSTc01WG3mr9p3zu8Rvxedtpxdxw6TnZdGUb6CwmwFJYpSaktKSEnIxmS2U5SVQXJGFlW1dajz0ylQN9ParCYuJYWMTAXFZSqysguJdIHTouPk4SQ8Li8nPvucYlUVTm+YirxYYpQ1FKQeISs3A4PNglHfRG76CSo1paSlpKAzfPffsEdDHnT1avYciUOlUpCVlkRxgYJSZRl1pYWkJKVgNrtlFvVVFWRnKeXj2opsDiUVEQyF5e8GYwsZmem0GroLQs0VSo7v/Yya+lriD5wk2CUJjZnSknIqVOWoSxTEpuTL91YmHyVXVUFDrYaMhGOcSsilqEiJplpLXm4uBZmJnIxJpai4kKISBQWZ8bS7w1j0eiqLFWhrauk01KOoKMfi/e6FmWDQT0lZHjmZecTFplCuqSQh9gDZuZkcTCgmKz2L8lIFdmeAsMtM0qkEMk+mknTiBAmJGbgjcnDO+S8SDtPcUEtO/BGSMovJKsinWaMgPjOd8jIFKbEpOKVCm99HSXYmWQUFVKsyiY05iDUMba2NFBVkU5KbzMeHUum0OPB7LCSl51CprmL3nh2oq2rxev09LtSdMxDfcqGyKJnEIg0tLW3kpaRhMl1IwfhbPD/vy0EyMhKp0VaRk5WCpq71vO+8mA4b6+vJzMqlrqaCY3FZxMcmUVKuJnyunPRiPvy0X2ZTKzX1zaiz08jLzKS504yxo5WamlrsNiuVpaVk5xVTVd/yPTz9wrz0uR0oS8upLCoiI6uIlsZKag0dlFRUojN20FRXxakTCaTlqfiWV+3CHvwF116HhbScIjS1dUglnqryIjKys9CUlZCUloVaq6UoL5MSZR0phz4mJ0fBzp0naNE3kpmRTr6iBFVBMbsOFlBSnEthQSHaag1ZxUpq1YUkJeXjsplITDqBovl7bvWNdmEytKCt1VKpyiSlsJTWVjMWgwFNTTUWqwVNlYa03Dz0bW1foHB+hz0T8K4ujO06lixexeW/6is3oV/160FcfdntXPPbO5g8cRZbntvEgvlLuf22UfS+7j6mT32CVatWs279eh4YNpmBvYbw2rYXaWySAnMBvwOPRrC0N3I8PpkCVT7qojJKcgspr6jEaOygsKgSXZOOAzt3kq/WkJ0Wy7GP32JfSik1BceJT00j7VQO8RmpvL3tZVo6pdpukNTYPOrq6nhnzXqUCg0+v4+Yz1/h41QVOnU6RQUpSPVbl8NMQU4mmtJC0k8dwxPuSXKOYjO1ciQ+keKSUlS5CZQocikprUSvb6O6pAxdYxsWk46P3nmT2BOp2K0W8uL28cIH+2huNcqxrW+s5fCevcQci6fdYiP+0C72v7EVgzNAwckkjB0dWMydVFWpqdY2Uaspo7a2AbfTzaFP32f73sMciknm2NGP2H7gJJnZeWSlZlBalIFGU87+HfvYs/MTMguK0eafoqrNhzLuFDve+Jji6gr+tvkNjp6KI0/33V+KQMBHaXkBuz7azpvbD9NmauKdF5+nMCuXrW8nUV/bgr5OSWlxBT6PnTp1KYc/2s/e7Z/w4b7DGD3dhZlzJX+pRN/Z3krsvt0kZFdSVFeFrrmSvMJimuuaUGQU0uoJ0FjbQFFmETGZsXz6wTaOH3kPZZ2B0nIVTXVq0vbtZPO7uygoqcRlaSapsJLaynJe2vACBw6cxPnNZpzLvIty3lRfSIKqDlOnmbzsfMxWqUjyQ29ReWxMbU0lcQd3sutoInaP/wc2IkpWTiEpRQ34XEa2vPQqq9e/SHF5zQ9mR6QrzN7PXyc+tYid7+yjOCed1/fu4G9vv0T8qQR27U1EW64kIbmE+pb2H8yucz2orrmekpR97Ht/N8dSKilI38HrR2NJPHWImH37SKtoIflIMpmFVefyosfnQ0E/paUqahoaZL/KFQUUK8swm9tRlahwO22ygMelFrL35TXExZzi7dc/Rl1VRUl5CQaTmdbGRra8GkvK8f0c3H+ImmotyclJFKfu4ZU3dpB47Ci7d3/MqbILF80LCaDb1E5WzHF2xSWSnXGcI0eOsfPNDzi+fTufxaaQGL+HimoNiQkxdJgvvBLYQwGPYDA2s2TRSv74v324/Ff9uVIS8N/czp9/fydTJ81m0+ZnmTvnKfknZJKAz5Ca0NesYt36dYwdOY2BvYby8gtbqauvxGw+/6lUIwE3MQd3czg+A2VxLunpmRzbv49d+w5hc/tobmhB36pHU6khKSWBYlUZ2qIc0lU1GNoayM1MIzU9n6YmLfHHjmGwSTXcKBVKrdxEk3vsBGUlGgwmN3VlySSVN2A3VFOnLUNvMpB26hgHjsei1tSgKCy/kDj9Z7chH8lH93HwSBLqylLiE+I5enAvO/YcwuxwY9K10mHowGo2UFqqpqRISswWWmo1nDiVgLGzu4blczrIzUgnLz8Xg8lKk7qM3OMHcQShQVWB1WqhuqyAd977O5XaJppqtPJysHabHW1VKSlpOaSnF5Eaf4qMvDwOHzpBUX4x2uJcXGFIP36YzJxClKoi4mOOY7T7yTkey/tbXiE7r4CUo4fZvn8nebrvPhhREtiinCyOHE8gMyuTzLx8CrITSUpJ4lRaEYf3H6SgQIlO14bb48LS3kpuYjYJx48Qn5qB3t7dBfLPkLvPdIWCHD+wnxMnEynKLyQhOYnspGN8uHO/XFNtrmmkw+PHaGwnPyWJpMwcaqtLKcqLoUZnpEFbTWJcHJVlZSSnpVFZXU/Q75ZbAhRKJYrMXLJy8jBYfdjadJhtbqx2N26f6zs1kZ0rHN903m9pRlWn48SRw+w/GoPnTJfKN930PVxrbWvG3GmgvLiQpKw8nO7z6+K4mKa0t+pJS0mmIL+AtJxyqqobUaoK8YR+mCq4NFtlXnYMp5JyyI5JISX2FPvTT7Fn34fsP3CCImUlWanpFBRVUt+sv5hB/05+GdqaiI05THpsCvHxueSk7ub9Uwl8+OFnpCblkJlfQG5yBvmKcgKhnlRazm2eqamBN197m3JtMzanCY2mjEaTB4+jHaPBjCI3kR1799Ooa6Mk/hC5efnsORKPplZLU0MlgQhYTSaOJ2moUhaSkpJOUU4BpxIy0DdqOBmTjLqiHKUyl9SSBjw+D16PHafdScB/cUveAZeL4sx0jicnoSxK4fDJGGIOJxB/cC+7Dx+nVJVPRqH0KaKt40cQ8DZDE0sWreJ3v+zDH/67P1de0t2E/uc/3Mm0qXPYvGUjc2Yvot/N93Prtffy+GNzWbdOGpm+XhbwATffx7bnn6NGW4bJ1F2TPHfUnr3SFQ7R1tyItlGH1WymU/50UldXj8cXoCscRuqDk15TS4eB4Om+jnCkCymKfE47bq8Pj8tOh6W7eVoScKnfRd66uuS+FakJXdrCUr+P1Icu9Ts7bXQY2+SautTfGQr2MDOIhDDqmqitlVZus2Gy2OTaU119vdwHK2UCX+w7k8YeSJtUUjW1t2NsbUKpKKKxoRm9Xs8XW7C7QgGZQSjQ3S8e8Lmoq6vF1GkhKI0LOG16VziAyWyRQkqr3kQ0GqHdaMLnDxPydzNx221yn5HH5aTdbCfkc1GcX0BOYjpmk5X6sgJiTiVi9ffsxbZZrTjdPqJhH62G7lqJxWqVhbJOW4PFcVakuyJhpLA1NzZgNH17F0y0q4u2Fh1NLXpcDgvmjnasHR1Uaeu6WUci/+inkuxwuLr7s7u6To8riIRoazMQjEQwG/R4fd1snJYOrA4XfrcDm8Mt2+SxWXB7A3i8AQLBH672Ge2KEAiFMLa1UtfQgD94cTMlOfGdx79IJAzRCKZ2E87THM/jtovuxGEz0246PdZDGh/jd8uZ/EV/0Dk8lNKoNE4m7Pdg0Olp1LVgttvoMFmQciNDaxsOtxteigSHAAAgAElEQVSP78cdOyGZLxVwWwwmeYyMub2d6jIlNW0d6PXtclqWCsxSRcDhchKS+h2/h83vdstdch1mG16fNC7HJzfXS2OYol1gNhnQarV4A9K714WkBR0dbXj9Ur7f/Z5KK2VK5Qu72USn3YnPZcfcbpbH9lgsZ/KJKG6f1NUVIBjwIo33CYUufpik8TN2mw2vx4nBbKa2QSf3w3eaOuQ82NhuxOb0IY0vutCtxzVwna6epYtW89tf3Mbv/rsff/xV90j0664YzIzp89iyZRPz5jxFv5uH00sS8BnzWL9hHc9u3MCYEVPpf/NQXnxuM1XVJXRcgIBfaED/L7sPhwJ4vZ4foc81SjhyVqylgYPf5+CW/8txKML28yEgFSL/VbYzlYV/FXv/FeyUKmQXa+uRgEulnKbmWp55ei2//a/b+P0v+/C7/+nHH/6nP9f+8S5mzpjL81s3y/Og95UF/B55hbJnN21g0+aNjH2gW8C3btpEpVpBe/v32x9xsaAJfwQBQUAQEAQEgR+bQI8FvLFRy6pnNvCb/7qN3/xXH373y378/r/786ff3i7Xtl/a9jyLFkqzsA3nlj/fwxOPPyn3iz/33GZGj5hM3xvu4/mNGymvKKTNoPuxeYjnCwKCgCAgCAgC/xIEeizgtbVqXnj+RX7333259N9v47enBfyqywYxe8aTvPLqiyxdsoK+t9zPzX++h7mz58sj059//jlGDJnIrdcN5vlNGyktzaO1relfApowUhAQBAQBQUAQ+LEJ9FDAw1RVlbFzx8dc9dvb+dX/6yUL+G9/2Z+rfn07s2fOZ9vLL/D0kpX06zWSG68ZzJwnFrD1+c288OIL3D/4EW64chDPrl2HQpGFTtf9s4EfG4p4viAgCAgCgoAg8FMn0CMBD4fDlJcrOXxoD7f8+V5+84s+8kC2y/6zD/17jWTF8pW89trLrF27kQG9H+CGq+9i3pyFSM3qW7duZcR9E7nu8oEsW7yUgsJUmpuFgP/UE4ywTxAQBAQBQeCnQaDHAq5SFbJ716fyJC3X/OEOrr/6XqQR6KOGP8qKFSt57vnNbNq0WZ42tdf1Q5gzayHS9Krr1m3gwVHSRC5DeXzqXGJjj9DcXPfToCKsEAQEAUFAEBAEfuIEeijgIRSKPLa98gZ9e42RB67ddM0Qbrt5JDMem8/mzRt5++032LHjEyZNnEP/3qMYN3oaj02Zw8IFTzN31hwmjJvGo5Pm8+mOT2ls/OFmSPqJx4swTxAQBAQBQUAQ+EYCPRLwUChEbl46L738OhMeW8/wBxYycOBEbrh2GAueXMHJk8coLCqQ56KdMG42t1w3hGH3TWbsmBnMeuJpFi1dz5zFm3lq5Qvs+vwzamp6OKPZNwZVXBQEBAFBQBAQBP7vEOixgOfkZrJ//y5eeOU9Fq37iHWvHWTttk/Z/Mr7fLD9AIeOJRGTmM7yVdtYuuoltrzyAS+9s4ttHxxh85uHeGrVW7z+xtskJR2nurri/w5ZERJBQBAQBAQBQeB7JNAjAY9Go9hsNjo6DNRqa1Epq6nTddLSbqfVZJPn6Jbm6W7vtGCy2jHbnZisTvQmO81GO7UNRlSKchrqauWFTNxu1/cYVOG1ICAICAKCgCDwf4fABQm4NPOaNPL8i5+LiUKal/uLfovjL7MWPAQPkQZEGhBp4OedBqSK85ntggRcciyJ+JmPlJCkWrPdbv3Hx2az4HTZMbS1Ulmmpq2tTZ4Y3+Gwo9O1oGtpxmrplBftsNttSOedTunjkN2d8Vvsz3IWLAQLkQZEGhBpQKQBKQ18ZwE/o/pn9pJnmqpysrNTyMlJJTs7mczMUxzY/xkL5sxl+qSZpCYnY+owUFdXzaeffsCWzWv55OO3SUw8Tl5eGkVF2ShV+ShLCmht/fEXtD8TNrEXBAQBQUAQEAR+ygQuqAb+1YBIAl6jVZOfn0lhQZYsxmmpccx/Yg539R3Kxg2bMBoNuFxubDY7cbHHefHFjWzauIbPPn0fhSIHlSqf0jIF5ZVKjMbWrz5CfBcEBAFBQBAQBASBryHQYwGvq6+huDhXFmOlKo/k5FimPDyRATffw8pnVtHUVIPTacPU0cb+fTvZuHE1q1cu5YP33qKkNJ+ysmIq1SVoqsto7zB8jYnilCAgCAgCgoAgIAh8lUCPBbyhUYtSVUBJaSGVaiVSDXzcyIflGdZmT5/DRx/8jSOHd/P5zg/ZsG4N06fMYMKYibzxysvyGuBqTSlV1eXUaCsxdbZ/1T7xXRAQBAQBQUAQEAS+hkCPBFy6uam5jtKyYjRVZXKf9ovPbaX/LcMZ2Gc0o0dMYtrk2cye9SQzps/l0QkzGTFkAncPGMPUibP5+IP3KC0toL6xmrr6KswW09eYKE4JAoKAICAICAKCwFcJ9FjAW3RNaGvVnDoVw6MPz6DXX+5jwG2jGfvAVJ6YvZAlS1awdOkK5j+5hEkTn2DI3eMYNWwi06Y8wf33jmfDmmcpryimRdeA1dr5VfvEd0FAEBAEBAFBQBD4GgI9FnCDUUdubjqTH5nFNX8YxM3Xdgv4kMEPM/nRJ1i/fhPPP/+CvJ88cQ79brmf++58iGeWreCJ2Yu5746xvPbSyzS31OJwWL/GRHFKEBAEBAFBQBAQBL5KoMcC3mGSBqd9Tr+bh3DNbwZx/eV30ev64dx9+zgmPDyLpUtXsXbds6xatZa5cxZz14Cx3NlvNMufWcmTc59i0K3DWb54OQ0NVbhc9q/aJ74LAoKAICAICAKCwNcQ6LGAG4x6VCWFTHxwKldfNoArLx3IDVffy+A7xjPr8UWsXruOZzduZO26dSxevJT77nqYQbeNYsmS5UyZOJv+N93D69tepd2kkyd3+RobxSlBQBAQBAQBQUAQ+AqBiyDgrfKSouPHTOaKS/txxSUDuf6KwfTrNYoxo6bxzPLVbNi4mbXrNjBv7lPc0Xc0A3uPYtHCpcx9YhF39xvB8xu30KKvk39u9hX7xFdBQBAQBAQBQUAQ+BoCPRbwDpOBD99/j1uvu5c//m9/rvz17Vz7hzu5/up76PWXocyetZjX3niNl7a9zIyp8+n9lyEM6DWS+fMWs3rVGobd8zBPzlpAebkCl9vxNSaKU4KAICAICAKCgCDwVQI9FnBTp4Hnt2zl8kv78Yf/kZrQB3HN7+/kxmvu4+Y/D2XkkEfZuGkjG559ltEjpnQL+K0jeHLuYlauXC2PSp/92FxKVIUXJuDRLmzWDsxWOy67DbPFgt1sxWQyEwpH8Lq9hMMRIiEfxnYDbn+IcNCPLxAk3NWF2WTCZnPg83oxmy1EpAnio124HG6Zkcdux+vxycehgAeXP4jf68TtdsrnpAF3JlMH0nzurQYjXp//q2wv4HsUu81Cp9mG1+3E2NmJzWKRwxIMRfC53XJYJA+leXC9Xq/sdyjgo6PdTDjSJX+X5qa3WCy4T9sdjYRxWE1y2Fw2J/JiMQEfRmMHLqcTs6kDvb77t/c+pw2rxU5Avm4gDIT8buwOG61tBiw2G52dJlw+H26nA4Ox+yd/XZHIBYTz/JxKLGx2B25pAiCLhYDXSafZjNvjoVWvp9N8uqAX7cLnduFxuOg0mbBYHZyd5v8cz4pGsZjN8ip6Toed9vYO3C4bxo4OgoEgHpeHMyGyW0xY7NIKeVG5dUg6Hw74MbQZ5Xn7Te1mfL6A/CBLuxGH0ymnB7vD+e12nMO8i3E6EgrgcPjwOt24T6fni+Hvhfrh9XkIBgM47XbsP5Id0mqJNqeHgDeAP+Cj3WjE7vhxVj0M+71ETr+rX2UpZcTnuvZVtz/E965QkJBsa5RI15ffqq5whFBYyiG+n03Kp1tbDf/IU502Cw6nG6/ditXmwONx0abX4fKG8Lut8noabW3t3e+kuQNfIIDVIuWnVjxuNxazBZvVQqtBcuOhw9SJy+OV87NQuDvv/H5C8mVfw6EQXZFulqFgAJvlHIO2o1EC/uB55SE9FnBpENuLz7/EFb8ewO//W6qBD+Lay+/mluuG0Ov6+xl+7wTWrlvL+g0bGDtqKrdeN5QBvU4L+KrVDL37IWZPm4tKmY/DaftyiL/hWzTkR61I4s2PPiM+9gjxMfGkxqSQEJdETWU16QnZGA2dFGScYse+vRRXqqkqSCavrInm+nL2fL6HE8eTiUuI4803t+MLQ8Bt4tjeBDxeP8fe+4jiogoC4SiVecc5qqpFmXmI1LRYbP4QddpyDuz+gKz0eD775GO0zcZvsPabL0W7AlSV5PLGe7vIykpl34E9pCYmk3gqBU1pOVlJKXSaujOdukolWZkK2cOSjCNsePkzHM7ugkZLYw3vvvsO+co6+bpOreDYR2+gM5mJ3XGYEOBzdBAfl0RWegYpcSf46LOjstva0hwOHDpKrqqEQ4d2UazWokjbQ0pBDvsOHCLuxAE+eH8Hp1KSSE1N5tCenXS4w7RWaykrVNGsb0NfV0VFTRWdHulJ320LBX2kpZ/g6KFj7Nu3n6SsdGL2fcKRw4f57EAqn+/YRUpKOh5/BMIeMhNPkbD7BH97+SXe+WSfHMZvenJXJIxKUcShT9/jSEwy+44eQVOSwfZ9eylXqUg9kYQ8lDISJvnoYQ7GJ6IpyyU2Zqd83tBUw9GD+8mKO8DSDW9RWdNMyGfj4L6D5OTmsnXzsxw5kUw4Gv3RMuSOhko+3J1PxuFYko6lfhOO7/FalOycZDSaMnZ/9A4nk4r44bLKM8GKcvzkUV7/7DiJh9MpUpdx7PB+jsclczofPePwe90b9HU06AwUnopFmZ9PRVMTjbp6WtvaMLR30FSrJbegnLrmH38mSmlxqhpNBcqMdFJyymltUKJs0NOsb8ZgbKWpRUfmqQxylOrzEpjvAtZtNbFz7xFKKirxOi38/e13OXEqjfhDn3DsRApZmbn87e03KVY3k7LjDQqLlew7dJKKyhI+37OHjLwCclJi2LdrO9s/2cnnew+gKM7mw093oEg5zPufHebwiUMcOnwQRZH6u5j4jfdIeZixrgGb3Ul1TS31tXW06FopTE2krExLa5uRsqI0Pnh7D1pVBXW1degMnbQbW2nTGyjJzSevoKK7UvmNT4IeC7ixXc9LW7dxpSTgv+zH1ZcN4vqrBnPbjSPof+toRt0/mQ0b1rNp00YmPTKLW68bwoCb7+fJOYtYvXoNQ+8ex6wpc+TpWO0Oy7eYe/ZytKuLRo2GmOQUlNVKalRVlBUWk5ySSkeHiYL8clpa2tizcy/lDU0kH9vFq6uX8Mb+VKoLj5OYk01mspJKXRO5p/ZQ224hHPSSFpdHiULB8ukzSUovpt3QytvPLWTb7iQay1MpLkzHHQhiaqohPS0ddXUNWenJBM9U286aeN5H0a4I+sZqYpJTUZWrqVKkoSrOJjY2kfYOI2pVGdUVlShy41mxfC0ffbiTotIyaiqUHEvPRN/e/eJ7XHZq1eWknDxCclYB773yAq+sW02d0UZxfDLl5SrKKtSUFGZQqdWjb66hsamRckUphvZ2VCXFvL8njZaWaj794E1e2riYmNQU6qpLqGvSk3b0ELt3fky2ohR9eQaVei9lySkcfG8nBSWFfPzmZ8SkJJCnP/+C2FchhcNBSkqK+PCvH/Lh54l0dLbw/l9fRVVUzEvvpdBQr8OsUxN78CS19Vqq1eUc3X6I7OREjp5KotLU3TrxVX/PfJdaMHR1JRzed4jMgmoqWhtori0jKyeHpoZmFFlF1BgMpKZmUZxdSnJODNs2L+bN1zZxKC6dpKxsDLpayrKyic0qpKK2BntnAyklNdRq6shITCQvJ48We1hetU8qb3+5/nLGku9v7zO38Pd9KooTs8lLyf3Bn98dsiilpYU0NdZRr1UTl5WB2f7d08V3oxUir0TF67vj+Nu2D8kor5AXVlLkFGPy/zCxEomEOX5sOynJeRx97zCF2Vl8cHwvr21bz9tvv8e+Q+mUK1Vk5ZVTXa//bsG8iHc1NteiyIkh5tMjJGZWkJ+1h78ePMir27ay/eM9FFc3kXI8ldTcsov41C97JVVoSlV5aLR1dLTr2RefRlp+FtsPvk9hZinJMUVoGprJzUhj3bzHUVaqZf2o17XSXF1DXOIpaqtLyYvbz449MajLyygrVFJelE9V2j5OJBVzMu4E+/Yc4VRsxumHX7z04LAZiH3rXYpUGuLT0og5+TkHMvMpSTzCmy+8zra3PkFZkMTHb8eS8NFHZCYl8teNr7D9/b/x0e4DHE/IRKnQ/FPLx5cpdX/roYBHaDO0/EPAf/fLflz160Fcf+Xd3HbT/fTvPZoxI6awceOzrFu/nrEPTKPXn+9lwC3DmT9vEWvWrGHY4IeZOfkJCguzsNnNX2fj156LBDxkpcaTr1JTU12OoriYpBMnSErPxhfuQt/cKouStlJNbmE+JeUa6lUF5JbV02FsoqiwgJxcBYb2VnKT4jHYumu41WX1OJ0uCuMS0KjrsLt8NFZmkqFuwtlRR3ODBovTTmFuGlkFKuobGilRVHytjed9MuKnIC2JnLxSGhtqycrKIDHmOAmpOXiCYcytBjqNJiymNiortVSUVGK2WmltrCOjoIi6ei2trTr0LTo05RUoi/IwdHTSUqOm6NRxXGFoqajCarPSoFGx79BhdB0WdLVaHHaH3JSjqSwkt6iYzBwVhQUZVGibqVNnyVPkalWFuCOQm3SK/AIlamkFurQkOp0+Evcd5MMX3qJco2b/+x/xwc4dKA3d3QznHf4vOIxGu1CXqDiVlEl2bh5lajUFWYnk5eeQll9JVnomZaWl6Nvacbo92DuNFKXlo8zLoUChQmcPfsG3fz6MBP2kJyVRWFRCRVkl2fkFKPNTOJmUjtvlQV/Xgsnjw9TeTnlBDjmFChpqK1AVJ6HVtdNYX0d+bjbV5RUUlpRR29BEJOAmMysHjUZNaWEJSpUKkyuE12HB7Q3g8QUIhHrSxfLP4fjGM0EXqYU6Wqsbqa/U/kgCDu3teszmdhpqNOQUK3B5u1uKvtH2i3oxRE2zjvzKBo58fgJNQz1KhQKFohxvDwrcF2KilJ4LcuPJzi8hLzEHRW4uu+KPsWvvJySnZKEsqaaitJSy8lr0ho4L8fp7cSvFWWF2IrlJ2eTkq8lM2MHf4xI4dvwkhdlFKDVayguUlGlq5W6278MIS5uOz3fuo7XdgsVuQqkqRlleQW56PPlFZahrW7A77TjsNkqTY8hOz+DAweO0tRvITcmkpEJDkbKI7PREyso1VJZXUlxSTnNzAw5DNSeSMlGVlpKcmEpJdQPhSJhgwIvf6+NiNKl7PXZO7fqEghI12pYmtFVFJOUqKctK5eThGE4kpWMy1JEWr6QsNYWWuhpiduwnIyOFnKIi0lOzUGsazuu97bGA61sbeeG5l7j8kv789pd95T5wScB73zCcfreM4sEHprJp8ybWb3hWFvNbrhlM/1uGsXD+YtatXcuwweOZMWkWeXkZWKwXMJVqtIuA34vXFyAUDBIMBvH7A/In0tWF9OJ0Rbsb7QJ+/5dgSGWtSCgkR1w4FMQfONufIwE5s0l+fKnLKhqV/QxFwgQCAXx+f3ct6+wtZ269sL0cFh9eb4BwOEQgGJT9l54h9Yt9cf3XL3osle6lfv7GmhLiYo6jLFXLgvHlsmT3t64z/VhdETxeL6FwSG5+OeNfJBzCH5DELyqH68x5qeM8Eu7O7UKhkMwxEg4TCEboCjjJy86hOLtI5q1ITSTuVBqe8Jct+Idf53kg9xVJcdgVxh/o7mOW4jcajeDxuJHGBZzZJDZSnEljGYLB82i6j0bx+/wEA6dZ+wPysdvrQ043ZzhJ/d1SP+DX9JFJ90sr8UnpKnKmTysQIBSSMgLpnrA0WAGJqRR/kr9fTFdnbP/e9lHk0rvEJvqF8HxvzzuHx/LzJd5+H+Gv4XiO2y7qaYm7/L7LYzWicj9pMHT2fb+oDzuHZ1ILWyAYkvMOv8dFbW0tnfYzhVyJj59gSEorZ9P1Obz63k9LLZs+n59wJCKn36pSJdo2E+GuqJwPSWleehelNN4lDar5HjYpf3G5PPJYpq5oRB67JL1bkm1SHtS9nX22lP97PFIaC8vvtpTXSe6ksVDSOyizJyr/SfdK+auULiT3UhgknejqisjnLlaYpD5uiVF33h0lLOXpch4WlZ8r61OkC2kMkWSvFDapICG5D/qlgsT5pQUpHC6Xi3/7t3+TPv92QdER6YrQoqtj65aX+MP/9keqgV95yUB5FPot191H/96jGD9uJlu2bObZZzcydtQUbvrT3bKAL174tFwrl5rQpz86m5ycNDrNYjGTC4oA4VgQEAQEAUHgZ0ugZwIeidDYpOXFra90C/gv+nL1pQP402W3c8PVg+lzywgeHvsYW57bzKbNmxk7cjI3XnUX/W4ZylOLnubZjesZOngcjz06m6ysZKQR7WITBAQBQUAQEAQEgW8n0GMBr2+o4ZWXXpN/A/6bX/Tlil8N4OrLbpcHsvW+YRgPjp7K81u3sPWF53h47DRuuOpO+t88jCVPLZX7xu+9YyzTJj5ORkYC7R1t326xcCEICAKCgCAgCAgCcrP/d25Cl9rspZXI3n7rb1x+yUB+/Z995Jr4VZcN4oarBnPrDcMY+8AUWby3vfwCj4ybzvVX3kXfm4aybMkz8u/D7+r/AJMfnkFaajzSwihiEwQEAUFAEBAEBIFvJ9DDGngYTVUpu3Z9ytW/uYNL/r03v/+fflx12UB5JHq3gE9j69bneGnbi4x/aCZ/ueJO+t40hGeWPSP3jd89YDSTxs0gJTmGtramb7dYuBAEBAFBQBAQBASBHtbAw2HKyhUcO7qPW6+7j8t/PYg//e5OeSa2G/50L/1uHcmsxxfy+huv8urrrzD78UX85Yq76HPjEFauWMmW57Zw7x0PMvWRx0lOOolO1yCiRBAQBAQBQUAQEATOg0CPauDST55UqkL27d1Fv5uGcdM13WuB395vDINvH8fokVPkdb+f3/ocL770PMuWrqB/r5EMuHUEC+Y/zfLlqxg9fAITxz3G4cN7aW7unkHsPOwWTgQBQUAQEAQEgZ81gR4LeLEij5dffZOB/cbLA9T63jyce+4Yx+gRk5kxfQHvvPM2b775Gjt3fczf/vYO9975CLfdMIzRwycy5dGZTJowkylTF/DJp5/Q0FD9s44MEXhBQBAQBAQBQeB8CfRYwPPzM3np5TeYNncL949ZzODBU7n7rkcZcs9Exo2dwccffkZ2dhZKlYID+09y96AJ3Hn7eB6ZMJ+Zs1cy9+kXWPHsa+ze8xnV1T2c0ex8Qy3cCQKCgCAgCAgC/+IEeiTg0mw36RnJfLbjQ5Yu38z4aZtZtHEnizZtZ9nGd1n//Nvs2HeM2OQs4lKy2XskgY3bPmTtqzvZ8NYhntn8KeMnLmP9uo2cjNlPRYXqXxynMF8QEAQEAUFAEPhhCPRIwCUTpdVrbDYLbXo92ppm2kxOTA4/dk8Aly+A3eXB6nBisTuxOd3yOavLT4fVg77NTLWmVl4azumyy1Mu/jDBFk8RBAQBQUAQEAT+tQlckIBLc/XK8+BK88ye/lzM4EvzwJ7xV+zPMhYsBAuRBkQaEGlApAEpDXTPr96tvBck4NLk79ICG5KISx9pEv4OUzs6fTN6fTM6XRMtLQ3o9U2UKIs5cuAEpaVl2GxmWtt0FBcVUlSYT329Fp2+SXbX2tpCm0EvrzVrs1n/4feZZ4h9N2vBQXAQaUCkAZEGRBqQRPvMdkECfuamM3vp5poaNXn5mRQUZpGfn0FubgpHDu/m6YULWbF0BQpFER0dksi3cPTIfra9tJntn7xLWlochYUZKBQ58rrBpWUK2gxiJrYzbMVeEBAEBAFBQBD4JgI9EnCpSV2r1VBQkElhYTZFRdmkpMYyZ8bj9Lnxbtat3oDR2IbL5cZqtXL06EFefPFZtmxex6fb36O4OAuFKo/SsiLKK5QYjD/+gvbfBEtcEwQEAUFAEBAEfioEeizg9Q1aFMo8lMo8VKp8UlJimTxuAgN73cvKZauora3CbO7A0NbC7l3bWbtmOatXLeX9v79JaWm3eFdUqtBUldHRIVYj+6kkDGGHICAICAKCwE+bQM8EvEtaTrQWVWkhpWXFaKpKSE2J5cHhD3FH3/uZNX0Ob/71NbZ/8h7vv/c3Vix9hknjpvDQyId55cUXUGuUsnBL4l2jrcDUKdYD/2knF2GdICAICAKCwE+FQI8EXLq5uaWesgoFlWoVSYkxbFq3mX43D+POgQ8ybuxjTJ82h1mPz2PqlFk8NGYaQ+5+RJ5KdeqE2Xzw3vvk52dR31BNbV0VneaOnwoXYYcgIAgIAoKAIPCTJtBDAY/II8+1tZWkpiby8Jhp3HrjUIbdN4GpU+by9FPL2bhxM889t5W1azcw94mnGD1yKncNGMsdt43k/vvGs2LJKpTKfLkgYLF2/qRhCeMEAUFAEBAEBIGfCoEeCngXrW0t8pKiy59ezZ//eAe39xvLgw9MYdqUJ1gwfwlr16xn6wsvsvWFl1i2bCUTxz/O3QMfZOCtI5gwbgYjhj7CymVrqKoqQ5rMRWyCgCAgCAgCgoAg8O0EeizgxvZWFIo87rt9LFdfNpCb/nQvfW8ewajhk5jzxCJWr17HuvWbWLlqHU/MWsQDwydze5/R9L1pOI+On8FDY6bw+JQ5ch+62+P4douFC0FAEBAEBAFBQBDo2XrgkvpLP/1Sa0qY+/hCrrqsP1dcMoDrrxzMfXePZ86cxaxbv4HNW7awdt0Gnpi9mJFDJ8kC3ufG4YwbM5WHRk/kjVdexdihw+6wiigRBAQBQUAQEAQEgfMg0OMauCTgFZVK5s6UBHwAV192OzdcdS/33jmex6bOY8mS5axcuYY1q9cxb97TjBk1jdv7jKHPDcMYO2oyD456lE3rNtHUVI3DaTsPk4UTQUAQEAQEAUFAEBeWU0kAACAASURBVOixgEtN6NJI8vvueJA//fZ2bvrzEHrfeD93DXqYMSOlvvA5zHliIevXP8u6dRuZPm0+gwc9yG3XD2X0iEmMHTWF8WOmkZWZjMstmtBFkhQEBAFBQBAQBM6HwEUR8OzcdAb2HsmVlw3ixmvupfeNw7mj/0M88A8BX8TSpc+waNEyxj80kzv7jqbPDUMZNWyiLPIj7x3PqfgTuDwXMoitizZ9LQ1NrXS06mhqasLQ3EJdXSP+YASH1U4gECLgs1FVo8Hi8hL0OnG6vQTCIZrq6mjVt2HtNFFVVUcoEgW66DSaZW6WtjYctu4Chc9txeTy4XaYsJiN8vWO9lZqtTUY9M2UV2rkldbOB/jXu4libG2hrl6PpbOdqoYGWltaqK9rxOML47JaCQbC8q2RcAj7abvcdjPlFVoCwe5rAb8PbW0t7abuloyukJ8OXS3SzLnmtnZ5H/K5qNLUYHU6aNM10azrnjzH1q6jsakFt8eFtq6GTquVem01bYY2KirVNDU3UaVRU62tp9VgpEbbINsT9Ae+Pkjf+WyUNn0TOn0rpnYddc3NuCzt1Dc0Yuo0U15WSkPTmQl/ojgtZixtHdRo1NQ2nsdMfl1dtDQ30dLcgtHQRnWNFrO5jaoaLV6PD7vJQui07a3N9TS1ddAV7aLTpEeiHPS40FRqsFrNqMtrMFudsuuWmioMxnaaGuppamn9zqG/GDf6PVbMDhftRgPVdU2EImfnTr4Y/p+vH06XDa/Xjb6xkRZ9O9Ib9kNv+tZWdEYzTqsTh9tBVZWGFv2Z9PPDWuO1WwmHwoS7IvK7+MWnS+dD4cgXT/2oxwGPC28wAtEQvlB3/nLGoHAgiD945i05c/bi7QM+DxXlamx2J9FIWM5nq+sb6Whp/Me7ZTG202mxUK1W449E8Xm9uD0eXB4nLo+HliYdDQ0GWvXN1FSraWxuorquBZfNgrZOj8Vqk/M5m9t78Qz/Fp8CXg/BQHccB/wedE06ZNn5yn3RcASXy/ulRUu+4uQfX3ss4G1GHbn5WQzqPbK7//uqe7jtpuEMvuNhHhr7GDOnz2X+k0+xfPkKlix5hkkTZ3F3/7H0uX4Io4ZNYOzIyYy87xHiYo/jdJ1/H3jI56ZVW8kHB3aSmptEcb6S7MxiShQlqLOzOHYwHqPJSmpsPMlZeVRWVpITe4TEwloatUUcS0wiOaWIwspSipUqAuEuzAYtez47hs1sY/srfyMjp5QOi4ecuJ3szvj/23sP6LiKPP93zjvvvN3zzv53dnb+szv5P7OzzJAMBmNjwCRjGxPsMTmNAcMQDE4Y45wwDmDABmxwTrJlS5YlK2d1Uid1t7qlVivn3FIHdVbW5517ZZEGHJBt9kHVOa2r7lu36lef+t37vVV1b5WFrIT9ZORkUNMm3TTUo807hb3CjiInh8aWjs+hXug/A91+mmpKOHD8FAaDkfysNHRaI1aTjVJ9NqfiEmhr89LX24NFryEpSYG0sEy5TUG80vb5ydTSWo/OkE97u7QoTB92dQ77d2zHZLUQs+8o4d4+eVa80rIKFCeiSE9NQWOz09fXT1b2CXLyNMTHZmLSpHDieA6qPB2dLheWAgMmowl7sY2MXA1mi5HMpH20hgfoqK3DkJ2LucBCU00x2RoVrYHvLuq9PWEstnzyMhXExKRTVl5G9LE9qLW57I3ToFPrcRQZaGnzEupo4mRMHOnHk8lLTSEzPQf3ObLu7+ujqaEKxeljJGXp0RQYqS0ykKLKxWhQEh+dgGdgkFCXF7NCiSJfhT47hsOHd9MS7KW6toJCkw6jMpXdp9V4ugKEfG0k5emw20s5eHQv1bV1dPlCRC76zc35eZZBEc+JbANFVgcWXR7tnd/D65lDEZKSYimyF2E0qKhqlG6Ezs/+ixkrKy2O9/bFkxarwGgvobjEQUlZBX1Dl8sY6ea8GlOhncK0JFJPn6ZSutGrL0ejNdDR4SRfoSQlPRdTccXFLPp3Sivo7SRbqaZAoSApOZuyUiMl9Y1k5OThqKmn1Gogat8x4tKUXKrbjbDfjUJvwVZWztDgIDVlhWTlZHLydBRKtQVFjpmonftQWW1oNDlUFRWSnBKDttBK4ukYHPWt1JdbUKSfpLapkZSYo2TmpqAubqDbU09aTh65makUmgu5FALe2xOi0e7A5e5CrTOgM1gpcxSRmZSESWtGo1GTlRLDnj3xlOr05Gu01DW2kpOVQV19I7mJibL2nI+HjlrAm5vr0enV8mthv/63G7nit7dy/VWTuXvSQ8ya8QxznnuJea8vYPHiN4cF/KHZ3H6z1IV+B9PumiUL+JRJfyUp8RQ+v/u8nW6wv5fGmjKyVVrMdhMlBUVoc/KwFpXg7nSh1xdRX9dI7KEj6EpKUWQmErtjKwdTjFQYkkjNU5CVokJXZCV23ydUt0t3x91kJ+VTVVnFB2+8hVZXRCDQRcLBDexIM1BfnEOBIZfu/gGcLXVYLBbKS4tQZKbQP4qr09BQP60NVWQqNdjsJVg0GWiV2RQUltDZ0YHDbKW2so7m+lI+++QTTsWm0tLSjEWZxp74dOqbh3sFOtua0SkVZCYmUNnQQvKxgxzavI4mTxh9ciYNTY001NVQXF6GMjaak4djOBydTEt7BxlJURyNSeD9nTHkK06y5/AplCottgID9oJsalvcNNSVUd3QhFmRS9qhXTT4BzGnpHFg6270xRa2r9tGXFoymobzr8evV3hvbzdFRUYO7TnA9n3xtHc2sn3TWgz5ajZ9lkNddTONFUb0mgI8bieVDhuxu4+Tk5zEyZR0Kty9X0/yK98HB/ppqKsgNyWZnPwSjJWlVJeb0JkKaW1sxpinp94XklvZZpWeVEUyBz7dxPGjH6KyVmIwm6ivtqM+FcOehGysJQ58rnrSdMVUlRSz55O9ZKTl0Nl7PqffV0y7aF86a4zEKiyYC2sps6upbWm4aGmff0KDFBUXUFnhwCwtcJSRg6srcP6HX5SYvagtFt4/ksSmldvIMJlpbKxFkaXA1XN56mdgoJ9jR7aSkqHlyEfRGFQ5vB99kC3vriLmZDxR0Vk4rGYys8xU1rVclFKPJpHKukpMWcc4sTOK+KwitIqDbImJ40T0fuKOHkdhryPrZCa5+cWjyeasx3aHg+j1emobh3uySosK0RoKSU46iFpZyK6Pj7Brw2ZO5upRa7I5FXuC9z78GEtpKSUOK2UNLbRU28mRGmyZ2dgtZgry1cSl5eFuKiX+dBZxJ0/J+9Qay1lt+S47uzwtxGx5F43BRnJ2FknxBziaY8CYcIQP3/2MfdEp2M3ZfPpBAik7dpCXlsbW1e+jzE3jQFQ0sQmZGAxF56UpoxJwaTGTxqYa9Ho146+dwq9+egP/LQn4lZO5+7ZZPPzXZ3hhzsvMn7eAJUveZP78RfLsbBOum8p1/z1JboE/cO8TSAKeGB+Ht+v8WwoDPQHUeSnoCksps9swGPUkn4xFY7AQ7pFaWc20tbdRX15GnlqFo6qRQHMd9upWXJ0tFOh1qDQG6usryTydhMsfkuuqtKiGvsEhagwmairq8If7CDgdmBs68DurqK8tpcPXJa+8Zigsoq6mhiJzyXep5y+O6Y+gy81Eo7NRW1tJTm4uKfGn0BRYCUZ66GyWuvMDDA0N4nV7qa9qQGpJNpQVkaHSyd3b0opvDTW1FOikaW0L6RuCiMdJZX424UGoKy6jp2+AttoSjiWk0VRfjqWggGyNWe7OKzNpyMs3UFhaSYFahVJrxGw2UVJooqIgX06jpb6ErlCYUpsFbXYWLa4AObFx7Fz3AYUOB6f27OLTg/sxtw53K39RwPP/T+pZKLWZUWgNaPI1FBbbMeZnos5XojY5yMvOpaCgAH9YamoP4u1spUBhwKhSoi+w0Oo/e9def0+EnKw8iqxF2Cw2cpUajOp0ErPUBANhGivr8Q1AbyRCkV6BWl+I19VObbWezlAfHS1NqBR5FJn05OqMVNU00NcbQZmrxFFiQ5GuwFBgpivcS8jrJhDqJhTupru3+7y6xM6f1LfH7PY2UlTbSkmxA01+Pr7Ad6+Pb8/l3Hvanc10Oluxm/TkG60EQpFzH3RRY/RT3tBIQWkdcVGJOKqq0Gl16IyFcrfrRc3qWxKThl/0mmTytGbyszUYFHkczUgm9vQx9EarPARmMxVgMpXS3Prde/G+JfsL/rnN2YI6OxFVlpJcpRV15mF2Z+aRp1BhN1vR2ewUqg3YSiov2dCMs66W/Xujaev0Eop4qKgso7YjQpkxB5XeQoc3TLXRgqWsEr0un7qWFlrbW2jv7JBn82xyOrEV5FNk0qHR2vC0t1NZVIxGZ6C+zEBKqkpe2jpfp8dqraC7t4eenjCRUIS+vtH3K0RCXaQc3oPWYqeyvp6qMhMZKhMF2elkpOWSoyvA3V5DXpqForxc6ivLSZeW3rYVYio0k52Whc1exeB5NApHLeB19VXk5ysYP2Yav/xXScBv4bor7+au22bx6MOzefGMgC9btpRFixYz84Gn5bhj/us2pk+eJb9KdvetM4iPi8HtOX8HlrpWvK5O2pwuQsGgPP4RioRpa2sb7lIeGmJwYLgywgEfA2fWUB2UfgekC3lv/wB9PRGCkS8u+oMj44VDQ7JIRs6MWUgsJQEdHBwgFAkR6PIO59XTx5eWZ73gE0Y+YHAAn9tFW7uLSCRMMBwhFA7R1tZKpOcfW5QjC7rLtgT8eN1OqqoqcDo78Xi9sniPGCJxkoJU0VLo6+uho70NfyhCT3f4K+Nu4Uj3sCh6hltKXR63LPqDZ3xaar1KIdIdpisYYbAvQlVFJRXFDsLBMB2NVZitRYSku4dRhHAoTHePVCcDeLuGn0MIhSMM9vfQ3t5KuPuLMV2pTqQyujo68AWC5851CLrcbpydbqRxqFDATygQkMevZdZfMj0cjpyxY7ju5cQHB+jq8sk+FPZ56O0ftqUnHCAU6WGov0fuOh/o66cnFJSPl57F6Ov/wsfObeToYoz4R3ckiM9/+cb4vm71iB3BwDCHr++/HN8lv5erdGi4nrweF+HufzynLrUtoXAYBvvweby43G5CkW78fslfh+jydMkiIq31/b2HwQHcviBSz0Ek4KeloZY2rx+320d3bz9hv/RcQ5hITzcD5yEw36U8/T098hLUXf4gPb1SPsPnjnSuS2PdI0HqhXW7vnhzSfK3z31O0oQv1bN0nQ8FQkiX93AkJA/n+P1++oeQz83+vh56e3oZGLn+j2TyHbe94RDd3X2f29Mta1Q3QwN9+H1e+gcG5bwkjZI1aaBf9gsp/7C/i4h8/Tt35qMW8JraclSqbCaMmc5//q+xZwR8MrdNeICZDzwlC/jChQtZsXIFixcvYdaMp+Xu9mv/eBvT73mIGdMf5+5bHiQu9gQut5gL/dxV9g0xpJsS6UL1JfH5hljiJ0FAEBAEBIEfEIFRC3h1dRl5iiwmXv8A//kvN3DF727lxqu/EPAXnn+JhQsXsWLFcpYsWcIjs2Yz7prJXP2HW7h/ysPMvP+MgMdE09E5PJb7A+IriiIICAKCgCAgCFwSAqMU8H4qKkrJzU1n0riZ/Oe/jJUfYht75d3cNmEGMx+UWuCvsGjRIlauXCGL+OxnXmT8dVO46v/cwgNTH+bB6Y9x+4T7iDl+FKfz+3395pIQFokKAoKAICAICAKXgMCoBby0tJjMzCTumjiL/zgj4NdecRe3jH+QWTOf5qW/v8rixYtZtWoVq1ev4oXnXmb8dVP5y+8myrOw3T/1Ue6ceD8nY4/R3t54CYookhQEBAFBQBAQBH54BEYl4NITw3Z7Ienpp5l6x6P8/J+v40+/vpVrr7ibSRNnyA+xvfLKa/IT6GvWrhkW8BdeZcLYe7niNzfz4L2PyNOpTpk0g9Pxx2lpqfvhERYlEgQEAUFAEBAELgGBUQu41VZAWtopHpnxLL/66TjG/HkyN42dztS7H+GpJ+fw+rwFLF26lA3vbGDdunXMfXUed9wygyt+fTMzpj8mP9R23+SHOXXyGE1NtZegiCJJQUAQEAQEAUHgh0dg1AJuNus5fuII99/zBP/1y5vl18cevO8pHnn4WZ579hV5MZO3li6VW99L33qLefPmM/OBJ7n6j7fLM7A9MO0xZk5/jKioA9TXV/3wCIsSCQKCgCAgCAgCl4DAqAW8wKRl07sfctttT8rd53dNfIBZDz7Fk48/z4tzXuX11xeyavVq9u7bzQcfvMf2be/z/OxXuPKPd3DLTQ9w37QneOzxV9i7bw/V1aWXoIgiSUFAEBAEBAFB4IdHYFQC3tfXh0aTy+at7/Pw7FXc88DrTLrzGW679WEm3/kIf53xN2bPfok3Fr+FSq3GUmgiKzuTF+YsYtKdT/Hk88uYM+8d5i/dzOEj+3E4rD88wqJEgoAgIAgIAoLAJSAwKgGXHmIzmfQkJcXxwUf7WLJ2Hxt2JLL501Ns+eQYmz/cz5YP97Jj12FSs5SkZWmIjs/gk0On2XYolff3JPPWqk/Y8clnKBRpVFU5LkERRZKCgCAgCAgCgsAPj8CoBFzC0dffT19frzzFnd8fortngN7+IXkidmmqvf7BQXnO3J6+Pnp6hz/S9JPS6l/hSC++Lj+RcIj+fmkau9HPQ/vDqyJRIkFAEBAEBAFB4B8JXJCAS13mkUiE7u7uzz/Sb/39A8Pzug4OyvOPj8xBLmUnibIcp0+aM1ya7nN42k/pd+kj/SZtpda8NBfwl9MW/3/BWbAQLIQPCB8QPvDj9oGenp7P17WQ9PWCBHxEfKWDRoTX5/fhcnXIn85OJ52d7Xi8ndRUV1JgMNFQ30Aw6MfrdVNTU0V5WSmtrU243Z3y2tTS1uNx4elyEwqF5HRH0hfbYc6Cg+AgfED4gPAB4QOSD4ws2HLBAv71BrzUcpZmYpMeZNNq89BoslEq09m752OemPUYLz77CjqdTl5Bqq6ulmNHD7Hh7ZXs3LGVlJRYtNocDAYlZosOi9VAc/P3sW7x10slvgsCgoAgIAgIAv/zCUiCHggE+MlPfiJ9fnJBFksCXlFZikGvwmBQYyzQkJ2dzNOPPsGVv7+Jha8vod3ZLi8/5/P5SUiIY8M7q1i7dhn79u3AZFJjtmiRJoMpKjbT2ibmQr+gChCRBQFBQBAQBH60BEYt4NXVFZhMWkymfFmMM7MSeWTGQ4y7+naWvLGEqqpSuau8ubmeo0cP8NabC3hj4et89ulHWArzsdqMFNstOEpttDtbf7QVIQouCAgCgoAgIAhcCIFRC3htXSWWQgNWq5GSEjPZWYnce8d93HzdPTz7zAts3bKJnTu28/7WTcx/bR6PPPAY90+ewXubNlJaapHf/ZbEu7zCTkdn+4XYLuIKAoKAICAICAI/WgKjEnDp4PqGGmxFJkpKCsnOTObNhW8x5oo7uXnc/cx44CmeefpF5jz/Ck8/9SIPTH+C2yf+lRuvncaMaU/w4XvvodMqqK4to6q6FJe740dbEaLggoAgIAgIAoLAhRAYlYAPDA7S0FhHRWUJGWlJzJj2KNf+5S7unfI4L8x5jTffXMrqNWt5Z+NGNm3axOrV65jz3FzuuHUW466dysSxU3j1hdfJV+fS2FSD29N5IbaLuIKAICAICAKCwI+WwKgEXDq4paVRfor8xWfn8tuf3cANV09h9jMvsXDBGyxbvow1a9bw9oYNbNq8mU2btvDi869zx8SZ8pKiE66fxk3X3sPcv8+n1GHFH+j60VaEKLggIAgIAoKAIHAhBEYt4M6OVmJjjnP1Hyfxm5/ewB/+YwLjr7uXB+99gldefp0VK1eydt16Vqxcw99fnMeUux5j3LXTuPHqqUwYM5WJN0yTBdxeYiEQFAJ+IZUn4goCgoAgIAj8eAmMWsDbnM0YC3RMGnc/v/23G/n1T8fxx19N5LbxDzL7by+xbNly1q1fx/IVq5jz/FzuvO1hrr9qqizg46+dyk3XTmbb1g9wdjbR5fP8eGtClFwQEAQEAUFAELgAAqMW8HZnMzqdiltvmM6v/lVqgU9k/PX3ct/UJ3jh+ddYunQZq1evZuXKVcx9dT7T7nmccWPu48ZrpiIJ+I1XT+atRcupqnbg83svwHQRVRAQBAQBQUAQ+PESGLWAd3S28vH2T/jTryby65/eyA1XT+XJx+fIT56/9toC3nxzCcuXL2PV6lWsWLGcF194jbsmPcLNN9zPzddPY9w1U5hy+ywy0lMJhXw/3poQJRcEBAFBQBAQBC6AwEUR8PXrNvKbf7+R3/zbOMZdey8Pzfobs5/5O6++Mo/Fi99k+fLlrFq1ilWrVjL31QXcMfGvTBx7HxOvl8bC7+H2CfeTcCrugsbAhwYH8HtdON0ufF43bo8Hj8uD2+2lOxzG6+6it3+A7nCQNqeTUKSXnnCQYKSb3oF+Ojo7cXt8RLojBIJBhqSFV/p6cHUOd+N7O134/EEGge6QD08wgs/bidfXJa/AFvB34XZ34A/45Xj9o1lJbWhALkNHp4dgwIdTss3lwSOXJYTX7aGvd3ilNqnCfL6AXMW9PRHc3sDnc+P29ffhD/rp7e2T9w/0dNPpbJPL6O5wyWXp6wnT0eEiHAoQCPjwB4Ny3EjEJ0/JFwqG6PK46OntJxTw0uX30+V2Ewl14/P5CIZCBIIBujweBocYXrxmcID+vuE8pUVpRhOkeX59XW66uvxyHm5vFwG/B5e7k65AkLbWNtzuLrm+hvr78Ljc+N1dclzpmH6pIs8SpPS9Hg++Lg9er5dOZwdBn5v2zk7C4SBel4dh0kP4pHn6vX4G+ntxdXYglUxi7pT8KRSg0+2XF+EZGhqkw+nE5w/g7XIT7o4wODj0eb2cxZxLtGsIj8sl190lyuA8kh2iq8tDOBImGAwS7u45j2MufhS3qwOn20fIHyEUDuNyuQmGIxc/o3OkKJ23fSE/4VD485jSIlBS6O3pJRIJE+n5fhh9btCZf6SVIvt7hnkNDPbL61NI1wM5DPQS9AcJBMPyOfj1Yy/G976eblrbnIQj0sIdA3i9LoKBIBGfVHfd8rnl6XTL1y6X280QQ3T3hAkEQzjb2ghFeujt7abV5SIc8OH1BqVVP+TrW39/H75gAI/Pj0vaH+6+GCZ/axrSbKWyNAz1Ew6F6O+VeErXVh+d0jX5zGJeUgKRyLAtvZEwoeD5+eioBdzZ0cymje/yu5+PGxbwMdP464NPMftvL/D6a/NZsuQtVqxYweo1q1m7dg1z5y7gjlv+ym3jH2Di9fdy41X3cMeE+4mPi8UfOP8x8MG+blqqCtm29wAZWcmoc1XoFHq0+TpKrUXkZOTT1tJBdvJpEjIzKCwuxJKTiNJaS41DS1xCAhmpKk6nJfLJx4fo7odIwEn88XS83i6OfyhN9eog3DeEOTeaWFM5FuVJchVpuEJhnG2NJJ7Yza6PPuBIdCytrlF0/w/20FJbwvY9Uag1ajJS49FrdejzjdgtBaiycuh0Dou2WZONIrdAdhhjVjRrth3FFxiu+LpqB7s+3YnRUiPvLytQEb9nG7Wt7aQciaNnELqDXVisxaQfO8C+jz8iNl0lx43d9RH7Dh1DazJw4MBH6Kx1aFL3obFb0eSoMOcks3XHDpIz8yktLeLTj3chSXaN1YYiOZOSikpsWhVKvY4G33c/KXq6w2gN2SSdSuDQ0ThMNhMn9u8kMz2NnYdzyEjLwlygxeMNQU8QZVYmqUdOs3PrVnbsP07vOQR8cKCfutpKTu3/hFPpatJVedSWmTiZkkyhqYDsxCykRykHu7tRp2WSmJuFVnGalOTDuAahqb4cjSIbZcJR5q39BEdFE90BJ4lpOVgKzKxZtpTElDz55nHgzAVaBnw5/wx1s3fHPk5lZFLv+75EYQC1JouSEitRuz8iJddy5sbocoIYJD0zhc174zgdlYbeUYRakUlKRi595/CTi2WldMNYatdjtleiiE8gPzcbTYmdohIzjtIySsuqKSk0kZFjpKym6WJl+53TkRaWMukUqFLTSM40UmFXonRUYS+xUlZqx+YoIzk2hex8q9wg+M4ZneXASMBLeo6KQruD/p4wsYd2czo1m8PvruRElor6hnpid+4nW2dFla+gwFJAelI8+gIVx47HYLIWkZlvYPuJPTRXWUlPyqeuzEHSaQXe1mqikhMxVNahzE0jS1N4Fku+267uiJ9KvZHWtk70hgLMJgO20grUKQlo860U2csx5aex65MYCnOUmIwmbPYqamvKsdscqNKz0GhtcgPpXBaMWsDb2hvZsvk9fv/zcfzqX6Uu9CnMfOBJnp39AgvmL2TZsmVyy3vdurW8vWEd819fxKQJM7nlxuEW+A1XTWbSTfcRFxuDz+8+l71f2j9IbXkx6dlqLHYTdqONAqUKtVaPxxfEZqugoa6RuGMnMDpKyU2PI/qjLRxIMVBpTCZLqSQvXYveVsjRnR9S2SbdPAyRn22mrKyUDxYvQW+w4/d1cXLf23yWZqCjWofVoqR3aIiW+mrSk5NJOHKM1LRMaupbvmTbhf/bVFNKclYehcV2LLpMDPk55Cq1dHq6qC+toK6yltpKKx+++z7xJ1Opqq2jUJ3Jp8dPUds0PAWtp6MdRUYGiTExFJVXc+rwPo68+zbOEBRlq6ipq6a6qhKLzUJGdDSxB6I5eCSRmroaDm58n+hj8Rw8kUpW+nEORCdydPc6FDYbTTVOLJlRfBp1mMTEdKqbW0g+fphWXx/6hGT2v7sLY4mNbWu3E5+egqr+Qurxq6z6+3qxWgzs3bGHnUeSaGqrYff7WzCotbz3WQ7lZTU0VRWizcun3dVBS10F8ftPkhRzgiMJSVS7z33nWlNhJzE2DoWuBGOVg5pKC0qNlrbmduyGImo9XdgK7RiURlKUyezesYHY6O3kGkvQm4zUVhajS05kT0wy+kIbAU8D2foiKux2jn52iNMJqXSEBxk60LMNCQAAFCNJREFU0wqXLuLS5/KFAVJPHGbvieOUdHzR4rt8+Q/nVFlpp762ggJlJkdPp9Lpu9xDZL3o7SV8ciKDrWs/Jq/ISl11GZmp2bh6Lk99DAz0cfTwVlIzdER9Eos5X827UXt5552lHD0Ww8GoDMqKrOSpSqhpdF7uKvqH/CprKynMO0HMZ8dIVjjQ5u5nQ3QMUYc+4/j+IyhKGlCnqNCYyv7h2Iv1Q193CJ1GSXV9I/4uLydOxJKiUJMYF0VMch4HDkSza8MW0jVGsvOS2HdgH1ve+4icvGTiU7MwGtVs33+IDTs2QW8XeUkqkk6eYNeeGGw5J1i7fSd5haXoNHlUN3cO9+ZdxHPU62nhxMZNqHSFZCjySE8+yJEcI4Up0XywZSefHkqg0q5h30cpJO/YiSYnmy1LN5GTmciuA1GcSs7DbCqhX+riPEcYtYA3t9bz3uatcgv8l/9yA2OvmsrMB5/iuWf/zoIFwwK+evUq1q9fy9tvr2PRwsXcfvPMMw+x3cONV90tC3jsiRN4u85/IpeB7hBZSXGkKfSUFFswGIxkpaYSdzqFrlCE9pZ2nJ1Ompqayc9XUlpZS3t1GdbKJnnCmCKzkQJzMW1tjejUGjxBqaUyRE15o9yVUaY3UFleQ5s7jLO+CEttK0FXPU2N1TQ7W8nPyyAxNYuKslLyNUbcvuGu6HPw/ubdvWFUqadJSddQVVmGUqMhKy2ZkwnJeAIhvM5OutzDXclNjW1Ul1fjDwTpaGlArdXS1NJEe1srHa1tFBYYsZc68PgCuJobcGiVhPqGaKmoIRgKUldh5VBUFCUOByXFRehMxXKXeFNVKTqDGau1FF2emsr6FlpqLdS2teJ1+elobsRmM1Fkc1BaUYY+X0m7y09u3Gn2bvoQs8WGIvEkOw/uw9o2ChZAsdmEQmPCXmxFZ7JQVWZFq9disjlITjhNoa0Ub1eXPDTgc3dQUlCMJicTrdGMp3u4W/KbQcNAby8ZSYnk5mlx2Gxyj0eBOpOok4m43F04G9vw9vTKwwVWgxaDuRhPZxPlDj3Nri7amhpQ5uZRW1uLSRLzxmYGB3rRqVUUl5RSVWTHVmynsyuCt7URlzeExxciFAleVhGvtEq9IQb6pDGg7yl0utrw+9xUOkoosJXQe2aY5fKZ009tcyv2unaU6Sqa25rRqJRYrKX0XyYu0o1bWYkRjb6QEp2J/BwFKVoFaZmnSc9UUlnTgD5fR3FJJY0t3/9aEJ6ONnIU2RQaTGhUJjTZx4lSqomJPS2LiqnQjFVvoshRjtTVfilCZ2M9+3YfoKK2Gae7DZ1WhaXYQW21A6PJTlOjkzKzjdLKUlKyM2jtcFHXWE99Qy2KvByq6ptpaW9GUaBmaCBMZWk9nk4XVZW1dLU3UFRVSZ5CxanYBMqrm4j0dhMOd+Hv8tEjdcWOMvRGgijioikoKqOhrZXGhjIUGgMmtQpNjoKkjAw62usxahxUGI20NtajSUknLS0Fm8OBKjsHe2nteQ1RjErApf59aQa197Zs5bc/G8cv/t+xcgt81oynmfPcSyxcuFB+cG3dujWsf3sd77yzniWL3+LOW/8qx7vpmsncePWwgB+PPobHewFTqUp3TNL4wZn1UUdaOVKBvt7akeJ9W5DGL892o/NN90AjeUjHSkH6ProwXJbBgUGQ7wTljVyOr5fl6/lI+5tqSsjJzsDuqKLvPMbiv7D3q6UbyUsavz1bGGE21BfEWlhIWVGZbGuJXotGU0DvaHF8KfMRW0dsk3zumxqzI3XypUO/9d8vxqeHuUtpj/jRVw/6Zg6f2/TlepfqTTrlPjfui7Sl9Efs/2r6P45vUp39TwmDkv98D8bIviFdK/p7aGpsxBf6YphJ9t3vxapvBjFw5vyXzvO6inKaO7/oOZGePRr25UtHUT4fB758HZfOK6l9deYc+2azL/DXoTPjz4Pyefv5OXqpijU0dFad+YrxQ5JN5xck3/nOy4lKDxjUN1Sy9d0P5Pe/f/7P1zP2qik8PPNpXpzzMm+88QYrV6440/pez6ZNG1j61jImT/orN1w5mZuuvosbrryTSTfdS/TRKFzu778L6fywiViCgCAgCAgCgsD3S2BUAi7dWdfWVbDtg+2ygP/sn65j7NVTefShv/HyS6/y5pI3WblyJevWr2XDhvVs3LhBfi988u2zuPGqydx45Z2MvfIObhs3jWNHDiG9kiaCICAICAKCgCAgCJybwKgFvKq6jB0ff8xvfjqOn/0/Yxh7zVQef/Q5XnnldZa89Zb8+tj69etkAZda4NLMbPdNfUx+B1xqfY+54nZ5UZOowwfo6Gg+t8UihiAgCAgCgoAgIAjIwwDfuQt9YKCf8nI7B/bv4bc/v4mf/t/XygIuTeQyd+58+Qn0tdLT52+vZ8OGDWzZspEVK1Zy/7THGX/dNK7/8+1c88fbuH38dGJORCE90S6CICAICAKCgCAgCJybwKha4NKkHdI64CdPHuVPv57I//q/ruba/76bp596gXnzFrBi+XLWv72ed97ZwMaN7/Due5tZvnwl905+lBuuvocxf5rEVX+4lcm3PkB8XDQtLfXntljEEAQEAUFAEBAEBIHRtcAlAbfaCkiIP87Vf5jEz/95DH/+/SSeefpFFixYJE/gIgn45s0b2fLuJlnApWVGH5z+OBNvnM61f5rEmCvuYPrkRzh18hhNTbWiSgQBQUAQEAQEAUHgPAiMsgXeh9kizdy1j+uvmsbvfn4T48ZM4cnHn+e11+azcOFili5bzuo1a1i7dp3clT5//iKefOI5Zt7/ONf/+U6u+a9JTLnjIY4c2Ud9feV5mCyiCAKCgCAgCAgCgsAoBbwfY0E+72zZxj3T5/Kn397B2L/cxQvPvsTixW/IE7ksXryYpUuXyuPh27Z9wPbt25j78mv87annuPmG+5g06TGenL2I/Qf3U1XlEDUiCAgCgoAgIAgIAudBYJQC3ocmP4/3PtjG869vYvrDb3L31BeZ/dxCXvz7fJ599lWefXYuc+a8zsuvzGf1mvXsO3iI1es28vK85fzt5XW8sGgry9Zs5eixgzgctvMwWUQRBAQBQUAQEAQEgVEJeF9fH0ajloTTMby3dQcLl33Kxk+T2bQria27TrJtdzTbPoti+6dH+GTPUfZHneJgTAqfHk3lo6gcNn+ayOsLNrHtg23k5aVQUSFa4MIlBQFBQBAQBASB8yEwKgGXpp/r7o4QDAVwd7pobenA64/gC/cS7u2XV2SSpvYc/gzS09dPuLuPQLgXX7AHl9tPc2MzbpeLSCREb2/v+dgs4ggCgoAgIAgIAj96Ahck4FJkqdUtPX0+8rnYBEfSFdsvGAsWgoXwAeEDwgeED0g+IOnwSLhgAZcSkKZQlT6SmDe3NlFR6aCy0iF3gUsTu1RU2slMT+H9zR+jzFPgdDZTXV1GWmoSqcmJ2KwFVFSUUFlZSk1NBXV1VdTX1+B2d36e9kgeYjvMWnAQHIQPCB8QPiB8QOr5HgkXJOAjB41sJWcqcdhQKDNQqjJRKNPJzklix8fvMfPeGTz92Gy0+RqaWxqpqipn795PWbZ0IR99tJnTp4+jVmei0ykoMOVjNutoahYTuYywFVtBQBAQBAQBQeBsBEYt4FIr2mBQYTCoKSjQkJ2VxDOPPsG1/z2RNxa8RVt7K6FQmC6fj4TTcaxbv4K1a5ezf99nmEz5WAr1FBWbsZdYaGsXc6GfrbLEPkFAEBAEBAFBYITAqAW8uqYCk1mLySyJsZbs7CQenfEw4665nTfmL6aivJjW1gaqq0s5dHA3SxYvYOG8V9n12UfYbHpsNiP2kkJKy4pwdrSN2CW2goAgIAgIAoKAIHAWAqMScOng2tpKuRVtsxVQVl5IenoC9955P7eOm8rsp+fwzvp1bH13E2+vX8tLL7zCg1NmMeW26WxYu5biYgOlpTYcpTbKK0ro7Gw/i6lilyAgCAgCgoAgIAiMEBi1gEsPn0ld4MV2MzHHo3h5zmtcf9Xd3HzjAzx435PM/tvfeeml13lhzlwefWg2d9wyk+uuvIdpdz3CO+veRq3KorqmDGlZUpe7Y8QusRUEBAFBQBAQBASBsxAYtYA3NtVRUWXn0IH93HTNnfz+P8Zx64SZzHn+NZYtW8nbG95m46aNbNy0ifXr17Nw0Zs8+vAcJtxwH+OuuYu5L86Vx88bGmvweDrPYqrYJQgIAoKAICAICAIjBEYt4NKDZ0mJp7h9/P384Rc38Zc/3Ma466bz6svz2bxlo7wOuLQW+Lp1b7N69XqWLVvF7Gde5uax0xl/3VQmXH8Pb8xbInel+wNdI3aJrSAgCAgCgoAgIAichcCoBdzZ2cruXbvl5UR/9+/j+f3/nsBffj+JyXfM4sU5r7B8xQrWrV/PqtVrmDt3Ifff+xQ3jZnO2L9MZtw198jLib7wzKs4HFYCQd9ZTBW7BAFBQBAQBAQBQWCEwKgFvK29SV4TfPKkWfzyX8bym3+7iSt+ext33jKT5597WV6FbM2aNaxcuYqX/j6Pu29/lOv+MpWxV03h5rH3cs1/3cbbqzfS4Wqmy+cZsUtsBQFBQBAQBAQBQeAsBEYt4O3OZrKy0rn5+un88l9v4Hc/n8CVf7iDmfc/zYIFi1m+cgWr16xi5cqV8vennnyJyXc+Igv4+Oumcd2f7+Dl5+dTVmbDH/CexVSxSxAQBAQBQUAQEARGCIxawDtcrSxesIL//Jex/J9fjOePv7xFHgOfP28R69evZdVqSbxXyV3pby19i4ULF/O3Z17i9okzmXDdvdx07RTuvmUG6WkphEKiC32kYsRWEBAEBAFBQBA4G4FRCfjQ4CDtzib+/tx8fv5P1/KH/5jAH34xgZvGTOONN96UW96rVg23vpctX87SZW+xaNEbzJnzKvdMeogJY6Yx4bop3D5+OqcTThEMXcBDbEP9lNp1GC0OqkuKsVgslBcWodeZ5NXO2pvaCAUjBLwtKNR51Hd4CLpbaev0EOyOYNbpsBeX0VRbhzJPS7h3EIYGqC1vkHnV2+20tQy/l97VUU91px+Ps5qGhgp5f3VVCdr8fOorylAp9QTCkbNxPse+ISocNrSGIhrrK1EWGHHYrHJZugI9uJqbCQW75TQioTCtza3y/+7WBtLTNQTDw/tCQR/5Wi2V1cMz2vWGuqi05tMHNDgq6R+E7q4OFHkqmtpbcdjMFNrK5LScNSUUWopxtjWTr9dQ39KCTplLi9NNIODH2eGky+/B6fVQU+5ApVQxAIT9Ab6YWv8cxTyf3UNDOOxmbDY71eVF6K1WnPUVGI0mqmvqyEhNw2QpP5PSIB2N9TQ4qlDl5pBfUMwXswR/S2aDA9gKLVgtViqkcqjzaagvRaHW4PP4aK1tIiInMkSJxYC5pIqevh5qqork30OeTvJy8mhpqiM7Q01DsxMYolCjoLyyCovJiMVa8i2ZX76fK2wFFFiLL1+G35CTs6OVLq8Lu8VMYXElg+esnG9IZJQ/2UtKsJbX097gpN3VjlKRi9U+4j+jTPwCD/e2NNLT3U13bze9/f1fObo70kN3j3Sm/s8IQXcH3lAfDITxhr56besJhgmEus99rn3HooT9XjLSc2hp62CwvwddvhqF3kxFsRmLrZT6mir0ZiM1jU1ocnOorKkiLSMDR0UlWqOK2uYW7IVWiq1lVJSUYCowUVZUiM5aTGd7A1ptIc1NzeTr1DR3XoDmfMfyjBwW9LoJ+oev1cGAG5vJRu9X3UCOOtDTi6vTy+CX5jwfSePr21EJ+ODQsIC/8uIi/v2fxvD7X4zn97+YwISx03njjcWsWr1SboGvWb1a7kKXRHzxm2/yysvzuOf2hxg/ZuqwgN80nYT4OPyB8x8DH+gJ01hu4YN9e0jNSkSdqyYvQ41Ba8Cu05MYl0lLi5O0uJMkZGRhtlrQJceQrq+g2q7meHwCyUlK0hSZHDsWT+/AEH5XPVH7TuFxe9i3YStqjRW3rxtt6n4OqawoUw6QlpVIk9uNs7WBlJO7+XTndhLTMmhzfffu/8HeEI1VRWzfewSlSkVGUhwqpVQWE8V6JcnxibS3DTtagSqLlGSVXI+mvFjeP5RCKNwjf6+rLePE8WPYS4dvQoo1WRzethl7RQUxu44Q6YdAlwuLrYT0Q7s5vGcP8Tn58rHVZVZSMtI4la1HnZfMnh0HOHLoGI0N9WQkxaIssKDKS0dtKSA74STRR/YSHIQ6axFZcYkUmAspMihJycuh1vvVE/7rTne2792REFpDNolxSew7EIu1uJADuz4kIyOFbQezyMnIxWJU0e70MRDoJPHUKU7vi+XIrs84GHUSv3RXcZYgLcZTV11O0pGdxCQryVApqLJpiU1LwahXczo6AfcQ9AQCaFIzSMrOQJ0RTfSxT2nvgZqaUrTqbPISolj+YRR1TU5CvlZOpuZgNpnZ8PZqlGojwXAPvb3f3wX5+O4POX4ijq7e70E1Zf69pKbHY7WZiY85hKqglIHLbsoQyclxrNt5nJj9iaitVnQ6DXkqHdL9+uUK5SUG8gtsKGJjSD8dT35pKbZiI3qDiYrKGgwqJfFJeVgcVZfLpG/Nx+NykpOTQV5iMifjc7AX5qJyVKDSqCiy2zGbCzi6J5r4DM0lFHA3ablqzMV2hqQbbpOKxORT7Ni8nuRcFUkZSrLS4tm/+zhGo47iEjPZ6ano9Sp2vf8u6XlK9KpsTh/eze4jJzh14jhxCakkZWZiSdnH7qgUog8f4mR8AnXt7m9l8V13RMI+yvK1sv7kqTRoNPmYrVbSTx5HmatHnW9AkRHDRx8cw5yZhUqhxlpUQYExnyKbg/STp8jJM53XDe9XBPxnP/tZ109+8hPERzAQPiB8QPiA8AHhA///8AFJu/8/IyoIvC7HaL0AAAAASUVORK5CYII=;" vertex="1" parent="1">
          <mxGeometry x="40" y="140" width="236.19" height="110" as="geometry" />
        </mxCell>
        <mxCell id="5iDha0_c4JHnKYvB__se-2" value="database" style="text;html=1;align=center;verticalAlign=middle;resizable=0;points=[];autosize=1;strokeColor=none;fontSize=22;" vertex="1" parent="1">
          <mxGeometry x="103.1" y="180" width="110" height="30" as="geometry" />
        </mxCell>
        <mxCell id="5iDha0_c4JHnKYvB__se-3" value="学習PC" style="shape=hexagon;perimeter=hexagonPerimeter2;whiteSpace=wrap;html=1;fixedSize=1;fontSize=17;" vertex="1" parent="1">
          <mxGeometry x="640" y="145" width="170" height="100" as="geometry" />
        </mxCell>
        <mxCell id="5iDha0_c4JHnKYvB__se-5" value="学習済みモデル" style="rounded=0;whiteSpace=wrap;html=1;fontSize=17;" vertex="1" parent="1">
          <mxGeometry x="370" y="480" width="170" height="60" as="geometry" />
        </mxCell>
      </root>
    </mxGraphModel>
  </diagram>
</mxfile>
